<svg version="1.2" xmlns="http://www.w3.org/2000/svg" viewBox="0 0 601 144" width="601" height="144">
	<title>national-cyber-security-centre-seeklogo</title>
	<style>
		.s0 { fill: #000000 } 
		.s1 { fill: #231f3c } 
		.s2 { fill: none;stroke: #231f3c;stroke-miterlimit:10;stroke-width: 3.3 } 
	</style>
	<filter id="f0">
		<feFlood flood-color="#ffffff" flood-opacity="1" />
		<feBlend mode="normal" in2="SourceGraphic"/>
		<feComposite in2="SourceAlpha" operator="in" />
	</filter>
	<g filter="url(#f0)">
		<path fill-rule="evenodd" class="s0" d="m573.3 108.6c0.4 6.6 3.5 14.1 11.7 14.1 6.2 0 9.3-3.8 11-9.2h3.8c-1.3 8.1-6.1 12.6-14.7 12.6-11.3 0-15.8-8.6-15.8-18.2 0-9.6 4.5-18.4 15.8-18.4 11 0 15.4 9.7 15.1 19.1zm22.9-3.5c-0.4-6-4.5-12.2-11-12.2-7.2 0-11 6.2-11.7 12.2zm-44.4 20v-34.4h3.8v7.7c2.4-5.4 7.2-8.6 13.4-8.6v4.5c-7.5-0.2-13 5.1-13 12.4v18.4zm-11-45.2v10.7h6.9v3.4h-6.9v23.1c0 3.2 0.4 4.5 3.1 4.9 1.4 0 2.8-0.4 3.8-0.4v3.9h-3.8c-5.8 0-7.5-1.7-7.5-7.9v-23.6h-5.8v-3.4h5.8v-10.7zm-40.9 45.2v-34.5h4.1v5.8c1.7-4.1 6.2-6.9 11.3-6.9 9.6 0 12.7 4.7 12.7 13.3v22.3h-4.5v-21.6c0-5.8-1.7-10.5-8.6-10.5-6.9 0-11 5.1-11 12v20.1zm-31.7-16.5c0 6.6 3.1 14.1 11.7 14.1 5.8 0 9.2-3.8 10.6-9.2h4.1c-1.7 8.1-6.1 12.6-14.7 12.6-11.3 0-16.1-8.6-16.1-18.2 0-9.6 4.8-18.4 16.1-18.4 11 0 15.1 9.7 15.1 19.1zm22.3-3.5c0-6-4.1-12.2-10.6-12.2-7.2 0-11 6.2-11.7 12.2zm-30.5-13.6h-4.5c-1.7-7.5-7.8-11.6-14.7-11.6-13.1 0-18.2 10.7-18.2 21.2 0 10.3 5.2 21.2 18.2 21.2 8.6 0 14.4-6.8 15.1-15.6h4.8c-1.4 12-8.9 19.5-19.9 19.5-15.1 0-22.6-12-22.6-25.1 0-13.1 7.5-25.1 22.6-25.1 8.9 0 17.8 5.6 19.2 15.4zm-93-1h4.5l11.3 29.3 11-29.3h4.1l-15.1 40.1c-2.4 5.4-3.7 7.1-8.9 7.1h-3.4v-3.6c1.1 0 2.1 0.2 3.1 0.2 3.7 0 4.4-2.4 5.8-5.4l1.7-4.1zm-9.2 0.1h7.2v3.4h-7.2v23.1c0 3.2 0.3 4.5 3.4 4.9 1.1 0 2.4-0.4 3.8-0.4v3.9h-3.8c-5.8 0-7.5-1.7-7.5-7.9v-23.6h-6.2v-3.4h6.2v-10.7h4.1zm-17.8-13.6h4.5v6.9h-4.5zm0 13.6h4.5v34.5h-4.5zm-20.2 0.1h3.8v7.7h0.3c2-5.4 6.5-8.6 13-8.6v4.5c-7.9-0.2-13 5.1-13 12.4v18.4h-4.1zm-6.9 34.4h-4.1v-6.2c-2.1 4.5-6.6 7.3-11.7 7.3-8.9 0-12.3-5.2-12.3-13.1v-22.5h4.1v22.5c0.4 6.2 2.8 9.6 9.3 9.6 7.5 0 10.6-7.2 10.6-14.1v-18h4.1zm-32.5-24q0-0.1 0-0.2zm0-0.2h-4.5c-1.3-5.1-4.4-8.1-9.9-8.1-7.9 0-12 7.5-12 15 0 7.3 4.1 14.8 12 14.8 5.4 0 9.6-4 9.9-9.8h4.5c-1.4 8.2-6.5 13.3-14.4 13.3-10.3 0-16.1-8.6-16.1-18.2 0-10.3 5.8-18.4 16.1-18.4 7.4 0 12.9 4 14.4 11.4zm-60.4 7.7c0 6.6 3.1 14.1 11.3 14.1 6.1 0 9.6-3.8 10.6-9.2h4.5c-1.7 8.1-6.5 12.6-15.1 12.6-11 0-15.8-8.6-15.8-18.2 0-9.6 4.8-18.4 15.8-18.4 11 0 15.4 9.7 15.1 19.1zm22.3-3.5c-0.4-6-4.1-12.2-11-12.2-6.8 0-10.6 6.2-11.3 12.2zm-67.5 4.4h4.5c-0.4 9.5 6.8 12.9 15.4 12.9 5.1 0 13-2.6 13-9.9 0-5.6-5.4-7.5-9.9-9l-10.6-2.4c-5.5-1.3-10.6-4.1-10.6-11.4 0-4.7 2.7-13.7 16.1-13.7 9.6 0 18.1 5.2 17.8 14.8h-4.5c-0.4-7-6.5-10.9-13.4-10.9-5.9 0-11.7 2.7-11.7 9.6 0 4.5 3.1 6.4 7.2 7.5l11.7 2.8c6.9 1.7 12.4 4.7 12.4 12.6 0 3-1.4 13.7-18.2 13.7-11.7 0-19.5-5.1-19.2-16.7z"/>
		<path fill-rule="evenodd" class="s0" d="m567.4 49.7v-34.7h4.1v8.4c2-5.6 6.8-9 13-8.6v4.1c-7.6-0.5-12.7 5.1-12.7 12.4v18.4zm-31.7-16.1c0.4 6.2 3.5 13.7 11.7 13.7 6.2 0 9.3-3.9 11-9h4.1c-2.1 7.9-6.5 12.4-15.1 12.4-11.3 0-15.8-8.1-15.8-18.2 0-9.2 4.5-18.2 15.8-18.2 11 0 15.4 9.7 15.1 19.3zm22.8-3.4c-0.4-6.6-4.1-12.4-11-12.4-7.2 0-10.7 5.8-11.7 12.4zm-62.5-28h4.1v19.7h0.3c1.7-5.1 6.9-7.5 12-7.5 10.3 0 15.4 8.3 15.4 18.2 0 9.6-5.1 18.2-15.4 18.2-5.4 0-10.6-2.8-12.3-7.5h-0.3v6.4h-3.8zm16.5 15.5c-9.2 0-12.3 7.5-12.3 14.8 0 7.3 3 14.8 12.3 14.8 7.9 0 11.3-7.5 11.3-14.8 0-7.3-3.5-14.8-11.3-14.8zm-50.5-2.7h4.5l11.4 29.5 10.6-29.6h4.5l-15.1 40.3c-2.4 5.8-3.8 7.1-9.3 7.1h-3.1v-3.4h2.7c3.8 0 4.8-1.9 6.2-5.1l1.4-4.1zm-7.2 1.5c-1.7-7.5-7.8-11.8-14.7-11.8-13.1 0-18.2 10.7-18.2 21 0 10.7 5.2 21.2 18.2 21.2 8.5 0 14.4-6.8 15.4-15.4h4.5c-1.4 11.8-8.6 19.3-19.9 19.3-15.1 0-22.6-11.6-22.6-25.1 0-13.1 7.5-25.1 22.6-25.1 8.9 0 17.8 5.6 19.2 15.9zm-65.8-14.4h4.5v47.6h-4.5zm-34.3 23.6c0.3-8 6.2-11.4 14.4-11.4 5.8 0 12.7 1.7 12.7 10.9v18.2c0 1.7 0.7 2.8 2.4 2.8 0.4 0 1.1 0 1.4-0.2v3.8h-2.7c-4.4 0-5.1-2.4-5.1-5.8-3.1 4.5-6.2 6.9-12.7 6.9-6.2 0-11.7-3-11.7-9.9 0-10.1 9.6-10.5 18.9-11.4 3.4-0.4 5.1-0.9 5.1-4.5 0-5.8-4.1-7.3-8.9-7.3-5.2 0-9.3 2.3-9.3 7.9zm22.7 5c-0.6 1.1-2.4 1.3-3.4 1.3-7.2 1.8-16.1 1.5-16.1 8.4 0 4.1 3.7 6.9 7.5 6.9 6.5 0 12.3-4 12-10.9zm-56.9-15.7h4.1v6.2h0.3c1.4-4.5 6.2-6.9 11-6.9 9.6 0 12.7 5 12.7 13.1v22.3h-4.1v-21.6c0-5.8-2-10.3-8.9-10.3-6.5 0-10.7 5.2-11 11.8v20.1h-4.1zm-5.2 17.5c0 10.1-5.8 18.2-16.1 18.2-11 0-16.5-8.1-16.5-18.2 0-10.3 5.5-18.2 16.5-18.2 10.3 0 16.1 7.9 16.1 18.2zm-28.4 0c0 7.3 4.1 14.8 12.3 14.8 7.9 0 12-7.5 12-14.8 0-7.5-4.1-14.8-12-14.8-8.2 0-12.3 7.3-12.3 14.8zm-13.4-30.4h4.1v6.4h-4.1zm0 12.9h4.1v34.7h-4.1zm-11.3 0h7.2v4h-7.2v22.9c0 3.2 0.3 4.9 3.4 4.9h3.8v3.4h-4.1c-5.5 0-7.2-1.7-7.2-7.5v-23.8h-6.2v-3.9h6.2v-10.3h4.1zm-40.2 10.7c0.4-8 6.2-11.4 14.1-11.4 5.8 0 12.7 1.7 12.7 10.9v18.2c0 1.7 1 2.8 2.4 2.8 0.7 0 1.1 0 1.4-0.2v3.8h-2.7c-4.1 0-4.8-2.4-4.8-5.8h-0.3c-2.7 4.5-5.8 6.9-12.3 6.9-6.6 0-11.7-3-11.7-9.9 0-10.1 9.2-10.5 18.5-11.4 3.4-0.4 5.5-0.9 5.5-4.5 0-5.8-4.2-7.3-9.3-7.3-5.2 0-9 2.3-9.3 7.9zm22.8 10.7v-5.7c-0.7 1.1-2.8 1.3-3.8 1.3-7.2 1.8-16.1 1.5-16.1 8.4 0 4.1 3.7 6.9 7.5 6.9 6.5 0 12.3-4 12.3-10.9zm-67.6-34.3h4.8l28.1 40.5v-40.5h4.8v47.6h-5.1l-28.1-40.5v40.5h-4.5z"/>
		<path fill-rule="evenodd" class="s1" d="m317 164.4l-2.4-1.9c-1.1 0.7-2.4 1.3-3.8 1.3-5.1 0-7.2-4-7.2-8.1 0-4 2.1-7.9 7.2-7.9 4.8 0 7.2 3.8 7.2 7.9 0 2.3-0.7 4.5-2.4 6.2l2.1 1.7zm-2.4-3.7c1.4-1 2.1-3.2 2.1-5.1 0-3.2-2-6.6-5.8-6.6-4.1 0-5.8 3.4-5.8 6.6 0 3.5 1.7 6.9 5.8 6.9 1 0 2-0.4 2.7-0.6l-2.1-1.7 0.7-0.9zm-25.3-12.5h1.7v6.4h8.9v-6.4h1.4v15h-1.4v-7.3h-8.9v7.3h-1.7zm-3.8 4.7c-0.7-2.4-2.4-3.9-4.8-3.9-3.8 0-5.5 3.4-5.5 6.6 0 3.5 1.7 6.9 5.5 6.9 3 0 4.8-2.3 5.1-4.9h1.4c-0.3 3.4-3.1 6.2-6.5 6.2-4.8 0-7.2-4-7.2-8.1 0-4 2.4-7.9 7.2-7.9 3.1 0 5.9 1.7 6.2 5.1zm-14.1 10.4h-1v-2.4c-1 1.9-3.1 3-5.5 3-4.8 0-7.2-4-7.2-8.1 0-4 2.4-7.9 7.2-7.9 3.4 0 5.8 1.7 6.5 5.1h-1.4c-0.3-1.8-2-3.9-5.1-3.9-3.7 0-5.8 3.4-5.8 6.6 0 3.5 2 6.9 5.8 6.9 3.4 0 5.5-2.4 5.5-5.6h-5.1v-1.3h6.1zm-20.2-9.7h-2.4v9.6h-1v-9.6h-2.1v-1.1h2.1v-0.9c-0.3-2.1 0.3-3.4 2.4-3.4 0.3 0 0.7 0 1 0.2v1.1h-0.7c-1.7 0-1.7 0.6-1.7 2.1v0.9h2.4zm-6.6 4.1c0 3.4-1.7 6.2-5.1 6.2-3 0-5.1-2.8-5.1-6.2 0-3 2-5.4 5.1-5.4 3.5 0 5.2 2.3 5.1 5.4zm-8.9-0.1c0 2.5 1.1 4.9 3.8 4.9 2.7 0 4.1-2.3 4.1-4.9 0-1.9-1.4-4.3-4.1-4.3-2.7 0-3.7 2.4-3.8 4.3zm-10.8-8.6v3.4h2.4v1.1h-2.4v7.3c0 1.1 0.4 1.7 1.4 1.7h1v1.1h-1.4c-1.8 0-2.1-0.9-2.1-2.6v-7.5h-2.4v-1.1h2.4v-3.4zm-9 3.4h1.4v2.6c0.7-1.7 2-2.8 4.1-2.8v1.3c-2.4 0-4.1 1.7-4.1 4.1v5.6h-1.4zm-9.6 3.1h-1.5c0-2.3 1.7-3.4 4.1-3.4 2.4 0 4.5 0.2 4.5 3.4v5.8c0 0.5 0 1.1 0.7 1.1l0.4-0.4v1.1h-0.7c-1.7 0-1.7-0.6-1.7-1.7-1 1.3-2 2.4-4.1 2.4-1.7 0-3.8-1-3.8-3.4 0-3 3.1-3 5.8-3.4 1.4-0.2 2.1-0.2 2.1-1.3 0-2.2-1.4-2.4-3.1-2.4-1.3 0-2.7 0.7-2.7 2.4zm5.8 1.9h-0.4c0 0.2-0.3 0.2-1 0.2-2 0.4-5.1 0.4-5.1 2.8 0 1.5 1.3 2.1 2.7 2.1 1.7 0 3.8-1.5 3.8-3.4zm-19.6 10.3v-15.2h1.4v2.1c0.7-1.8 2.4-2.4 3.8-2.4 3.4 0 5.1 2.4 5.1 5.4 0 3.4-1.7 6.2-5.1 6.2-1.3 0-3.1-1.1-3.4-2.8h-0.3v6.7zm5.2-14.4c-2.8 0-3.8 1.9-3.8 4.3 0 2.5 1.1 4.9 3.8 4.9 2.8 0 3.8-2.3 3.8-4.9 0-1.9-1-4.3-3.8-4.3zm-20.9 2.2h-0.9c0-2.3 1.7-3.4 4.1-3.4 2 0 4.1 0.2 4.1 3.4v5.8c0 0.5 0.3 1.1 1 1.1 0 0 0-0.4 0.3-0.4v1.1h-1c-1.4 0-1.4-0.6-1.4-1.7-1 1.3-2 2.4-4.1 2.4-2.1 0-3.8-1-3.8-3.4 0-3 3.1-3 5.8-3.4 1.4-0.2 1.7-0.2 1.7-1.3 0-2.2-1-2.4-2.7-2.4-1.7 0-3.1 0.7-3.1 2.4zm5.7 3.6v-1.7c-0.3 0.2-0.7 0.2-1 0.2-2.4 0.4-5.1 0.4-5.1 2.8 0 1.5 1.4 2.1 2.4 2.1 2.1 0 4.1-1.5 3.8-3.4z"/>
		<path fill-rule="evenodd" class="s0" d="m89.9 64.9c0 0.4 0 0.6-0.4 0.6 0.4 0 0.4 0.5 0.4 0.9-0.4 0-0.7-0.4-0.7-0.4h-0.3c0 0.4 0 0.4-0.3 0.4 0 0.2-0.3 0-0.7-0.4h-5.1c0 0.5 0 0.5-0.3 1.1-0.3-0.7-0.3-0.7-0.3-1.1h-4.8c0 0.4-0.4 0.4-0.7 0.4-0.3 0-0.3 0-0.3-0.4h-0.4c0 0 0 0.4-0.3 0.4v-0.9c0 0 0-0.2-0.3-0.6 0 0 0-0.6 0.3-0.6v-6.9c0 0-0.4-0.4-0.7-0.4 0.4-0.2 0.7-0.2 0.7-0.2v-6.6c-0.3-0.2-0.3-0.6-0.3-0.6 0.3 0 0.3-0.2 0.3-0.2v-0.9h1c0.3-0.2 0.7 0 0.7 0.4 3.1 1.1 5.8 2.8 7.9 5.8 0.3 0 0.3 0.4 0.3 0.4 0.3-0.4 0.7-0.4 1-0.4 0 0.5-0.3 0.7-0.3 1.1 1.7 2.8 3.1 5.6 3.4 8.6 0.4 0 0.7 0.7 0.2 0.5zm-13.9-15.9v16.7h13.4c-0.3-3.6-1.7-7.7-4.1-10.9-2.4-3-5.9-4.7-9.3-5.8z"/>
		<path fill-rule="evenodd" class="s0" d="m89 65.5h-12.6v-15.8h0.3c1.3 0.4 3 1 4.4 2.1 1.4 0.6 2.4 1.9 3.8 3.4 2.4 2.8 3.8 6.3 4.1 9.9zm-11.6-15.3c0.3 0.2 0.3 0.7 0.3 1.1-0.3 0-0.7-0.4-0.7-0.4v5.1l0.4 0.4c0.3 0.2 0.3 0.2-0.4 0.6 0.6 0 0.6 0 1 0.2-0.3 0-0.3 0.4-1 0.4 0.7 0.4 0.7 0.4 0.4 0.6 0 0.4-0.4 0.4-0.4 0.4v5.8h0.7c0 0 0 0.4-0.3 0.6h3.8c0-0.2 0-0.6 0.3-0.6 0 0 0.4 0 0.7 0.4 0-0.5 0-0.9 0.4-0.9 0.3 0 0.3 0.5 0.3 0.9l0.4-0.4c0.3 0 0.3 0.4 0.3 0.6h4.4v-0.6h0.2c-0.3-2.4-1-5.2-2.7-7.3h-0.3v-0.6c-0.3 0.4-0.3 0.4-1 0.4 0.3-0.5 0.3-0.7 0.7-1.1-0.4 0-0.7 0-0.7-0.4v-0.2c-1.7-2.3-4.1-4-6.8-5z"/>
		<path fill-rule="evenodd" class="s0" d="m86.6 62.7c0-0.4 0.3-0.4 0.3-0.4-0.3 0-0.3-0.2-0.3-0.2 0 0 0.3 0 0 0-0.3-0.6-0.3-0.6-0.3-0.4-0.3 0.4-2 0-2-1.1 0.3 0 0.7 0.4 0.7 0.4 0.7 0.4 1.4 0 1.4-0.4 0-0.6-0.7-0.9-1-1.7-0.4 0-0.4-0.2-0.7-0.2-0.3-0.6 0-1.1-0.7-1.7 0-0.4 0-0.4-0.3-0.6 0 0.2-0.3 1.3 0.7 2.4 0.7 0.6 1.7 1.3 1.7 1.9h-0.4c-0.3 0-0.7 0-0.7-0.2h-0.4c-0.3-0.6-1-1.5-1.4-1.7-0.7-1.1-0.3-1.7-0.3-2.4 0.7-0.4 0-2.1-0.7-2.1v-0.6h-0.3-0.3c-0.3-0.4-0.3-0.4-0.3-0.6 0 0.2 0 0.6-0.3 0.6h-0.4-0.3c-0.4 0-0.4 0-0.4 0.2 0 0 0 0.4 0.4 0.4h0.3 0.4c0 0.4 0.3 0.4 0 0.4h-0.7v0.2c0 0 0 0.4 0.3 0 0.4 0 1 0 1 0.4 0 0.6-1 0.6-1 1.3-0.3 0-0.3 0-0.3-0.2-0.4-0.4-0.7-0.4-0.7-1.1-0.3 0-0.3 0-0.7-0.4-0.3 0-0.3 0-0.3-0.6v-0.4-0.2h-0.3 0.3l-0.3 0.2h0.3l-0.3 0.4v-0.6h-0.4-0.3 0.3v0.2h0.4v0.4c-0.4-0.4-0.4 0-0.4 0-0.3 0.4-0.3 0.4 0 0.6v-0.2h0.4v0.2 0.4c0 0-0.4 0-0.4-0.4 0 0.4 0.4 0.6 0.4 0.6 0 0 0 0.4 0.3 0.4v0.4-0.4c0.3 0 0.3 0.4 0.3 0.4 0.3 0.2 0.7 0.9 1.4 1.7-0.4 0-0.7 0.2-1 0.6 0 0.2-0.7 0.2-0.7 0.2l-0.3-0.2h-0.4l-0.3 0.2h0.3c0 0 0 0.4 0.4 0.4-0.4 0-0.4-0.4-0.4 0-0.3 0-0.7 0.4-0.3 0.6 0 0 0-0.2 0.3-0.2 0 0.2 0 0.2 0.4 0v0.2l0.3 0.4c0 0.2 0 0.2 0.3 0.2-0.3 0-0.3-0.2-0.3-0.6 0.3 0 0 0 0-0.2h0.3l0.3 0.2v-0.2c0.3-0.4 0.7-0.4 1-0.4 0 0 0-0.4 0.3-0.4h0.7v-0.2c0 1.1 1.7 1.1 2.1 1.9-0.3-0.2-1-0.6-1.4-0.2-0.3 0-1 0.2-1.4 0.6 0 0.4 0.7 1.1 1 1.3h-1c-0.3 0-0.3-0.6-1-0.2-0.3 0-0.3 0-0.3 0.2h0.3c0 0.4-0.3 0-0.3 0.9h0.3c-0.3 0 0 0 0 0h0.3c0 0.2 0.4 0.6 0.4 0.2v-0.2h0.3 0.4 0.3 0.3 0.7c0.4-0.4 0-0.4 0-0.9v-0.2c-0.3-0.6 0.7-1.1 1-1.1 0 0.4 0.7 1.3 1.7 1.7 0.4 0.4 0.7-0.4 0.7-0.4v0.9c0 0.2-0.3 0-0.3 0h-0.4c0 0.2-0.4 0.2-0.4 0.6 0 0 0.4 0 0.4-0.4v0.4h0.4c0 0-0.4 0.2 0 0.2 0 0.4 0 0.4 0.3 0.4v-0.3l0.4-0.2c0 0.2-0.4 0.2 0 0.2l0.3 0.4h0.3c0 0-0.3 0-0.3-0.4 0.3-0.2 0-0.2 0-0.2 0-0.4 0.3 0 0.3-0.6 0 0 0.3 0 0.3-0.4h-0.3z"/>
		<path fill-rule="evenodd" class="s0" d="m72.4 72.4c0 0.6-0.4 0.6-0.7 0.6h-0.3v10.7c0 0.2-0.4 0.2-0.7 0.2 0.3 1.7-1 2.1-1.7 2.1-0.7 0-1.4-0.4-1.4-1.5 0-0.6 0.7-0.6 1-0.6 0.4 0 0.7 0 0.7 0.4-0.3 0.2-1 0-1 0.2 0 0.5 0.4 0.9 0.7 0.9 0.3 0 1-0.5 1-1.1 0-0.6-1.1-1-2.1-0.6-5.5-1.7-8.6-7.3-8.2-11.8h-0.4l0.4-0.6h-0.7c-0.3 0-0.3-0.4-0.3-0.6 0-0.4 0-0.6 0.3-0.6 0.7 0 0.7 0.2 0.7 0.6v0.2l0.7-0.9c0.7 0.3 2 0.9 3.4 0.9 2.7 0 4.8-1.3 5.8-1.3 1.3 0 1.7 0.6 1.7 2.1h0.3c0.3 0.2 0.6 0.2 0.8 0.7zm-3.5 6.4c0.3-0.6 0.3-1.3 0.3-1.9l-3.1-4.9c-0.4 0.4-1.1 0.4-1.4 0.4zm-0.1 0.7l-5.1-6.9h-1.4l6.2 9c0.3-0.5 0.3-1.1 0.3-2.1zm-0.7 3.2l-6.5-10.1c-0.7 5.1 3.1 8.5 6.5 10.1zm1.5-12.2c-0.3 0-1.7 0.7-2.7 1.1l2.7 4.1 0.3-2.8c-0.7 0-0.7-0.4-0.7-0.6 0-0.6 0.4-0.6 0.7-0.6h0.3c0-0.8 0-1-0.6-1.2z"/>
		<path fill-rule="evenodd" class="s0" d="m70.9 53.7q0.7 0 1.1-0.1 0 0 0 0h-1.1zm1.1-0.1c0.3 0.4 0.3 0.4 0.3 0v2h-0.3c-0.4 0-0.4-0.4-0.4-0.6v0.6h-0.3c0 0 0-0.4-0.4-0.4l0.4-0.2h-0.7l0.3-0.4h0.7v-0.6h-0.7c-0.3 0.4 0 0.4-0.3 0.4-0.4 0-0.4 0-0.7-0.4 0.3 0.4 0 0.6 0.3 0.6v0.4c0 0.2-0.4 0.2-0.7 0-0.4 0.2 0 0.6-0.4 0.6-0.3 0-0.3 0-0.3-0.4 0 0.4 0 0.4-0.3 0.4v-0.4h-0.3v0.4c-0.3 0-0.3 0-0.3-0.4 0-0.2 0.7-0.2 0.7-0.2h-0.3c-0.3 0-0.3 0-0.3-0.4h0.3c0.4-0.2 0.4 0.4 0.7 0.4 0 0 0-0.4 0.3-0.4h-0.3c-0.3 0-0.3-0.6 0-0.6h-0.3c-1.7 0-0.7 0.6-1.4 0.6 0 0-0.4 0.4-0.7 0.4v-0.4c0 0.4-0.3 0.4-0.3 0.4h-0.3c0 0.2-0.3 0.2-0.3 0.2v-0.2c0 0.2-0.3 0-0.3 0.6q0 0 0 0v-0.4c-0.4 0-0.4 0.4-0.4 0.4v-0.4h-0.3v-0.2c-0.4 0.2-0.7 0.6-0.7 0.6 0.3-0.4 0.3-0.4 0-0.6 0 0.2 0 0.2-0.3 0.2v-0.2h-0.4v0.6c0 0-0.3 0-0.3-0.4-0.3-0.2 0-0.2 0-0.2h-0.3v-0.4c-0.3 0-0.3 0.4-0.3 0.4-0.4-0.4 0-0.4 0.3-0.4q0.1 0 0.1-0.1c-0.1 0-0.2-0.1 0-0.1 0-0.4-0.3-0.4-0.3-0.4h0.7v0.4c0.4 0 0 0.2 0.4 0.2h0.7c0.4-0.2 0.7 0 0.7 0 0.3 0 0.7-0.2 1-0.6-0.3 0-0.3-0.4-0.3-0.4h-0.3q-0.3 0-0.5 0 0-0.1-0.1-0.1c0.2 0 0.4 0 0.6-0.1q-0.3 0-0.5-0.1 0 0-0.1 0c0-0.2 0.1-0.4 0.2-0.5h-0.3q-0.5 0 0 0v-0.4c0 0 0-0.4 0.3 0v-0.4h0.2v-0.2c0 0 0.3 0 0.3 0.2 0.4 0 0.4 0 0.4 0.4v-0.6c0 0 0.3 0 0.3 0.2v0.9c-0.3 0-0.3 0.2 0 0.2 0 0.4 0.3 0.4 0.3 0.4v-1.1c0 0 0-0.4 0.3-0.6h-0.3q0.3 0 0.4-0.2c0.1 0.2 0 0.2 0.2 0.2l-0.1-0.2c0.1-0.1 0.2-0.2 0.2-0.2v-0.2l0.3 0.2v-0.2h0.3c0 0 0.3 0 0.3 0.2h0.3v0.4h0.3c0 0.2 0 0.2-0.3 0.2 0.3 0.5 0 0.9 0 1.1 1.3-0.2 2 0.4 2.7 0.4 1 0 1.7-0.4 1.7-0.6 0-1.1-3.8 0-3.8-1.5 0-0.2 0-0.5 0.2-0.6v0.5c0 0.6 3.8 0 3.8 1.5 0 0.5-0.3 0.7-1 0.8zm-2.8-2.9q0.1 0 0.1 0v0.1q-0.1 0-0.1 0zm0.1 0v-0.3c0.3-0.7 1.4-0.7 1.7-0.9q0 0.1-0.1 0.2c0.4-0.4 1-0.9 2.1-0.7-1.7 0.4-1.7 1.7-3.7 1.7zm1.1-0.6q-0.1 0-0.1 0 0 0 0.1 0zm-5.6 3.2q0 0.1 0 0.2-0.1-0.1-0.1-0.1c-0.2 0.1-0.1 0 0.1-0.1zm-1.8 1.3q0 0 0 0h0.1q-0.1 0-0.1 0zm7.9-4.9c-0.2 0.2-0.4 0.4-0.5 0.4 0.2 0 0.4-0.2 0.5-0.4zm-8.1 4.9q0.1 0 0.2 0c0 0 0-0.1-0.2 0zm5-2.6h-0.6v0.4c0 0-0.3 0-0.3 0.4h0.3c0 0.2 0 0 0 0v-0.4c0-0.4 0 0 0.3 0v-0.4c0 0 0 0.4 0.3 0.4zm-0.8-0.4q0 0.1-0.1 0.1 0-0.1-0.1-0.3zm1.2 0.4c-0.4 0-0.4-0.2-0.4-0.2v0.2z"/>
		<path fill-rule="evenodd" class="s0" d="m62.9 58.9c0-0.1 0-0.3 0-0.5 0 0.1 0 0.1 0.1 0q0.1-0.1 0.2-0.1h-0.3c0-0.3 0-0.6 0.1-0.7 0-0.1 0.1-0.2 0.2-0.2l-0.3-0.2c0.3 0.2 0.3 0 0.7 0-0.4-0.4 0-0.4 0-0.6v0.2c0-0.1 0.1-0.2 0.2-0.2 0.1 0.3-0.1 0.3 0.2 0.3 0 0.3 0 0 0 0l-0.2-0.3q0.1 0 0.1 0c0.4 0 0.4 0 0.7 0.2h0.3l0.4 0.4c0 0 0 0.2 0.3 0.2-0.3 0-0.3 0-0.3 0.4 0 0.5 0 0.5-0.4 1.1 1.7-0.6 4.5 0 5.5 0 0.3 0 1.7 0 1.7-0.4 0-0.2-0.4-0.2-1.4-0.2-1 0-4.8 0.6-4.8-0.9 0-0.6 1-0.6 1.7-0.2 0-0.4 0.4-0.4 0.4-0.4 0.7-0.2 1.7 0.4 2.4 0 0 0-0.4 0.4-1.4 0.4 1.4 0 2.4-0.6 3.8 0-1 0-3.1 0.6-4.8 0.2l-0.4-0.2c-0.6 0-1 0-1 0.2 0 0.8 2.7 0.4 4.1 0.4 1.4 0 1.7 0.4 1.7 0.6 0 0.4-1.3 0.6-2 0.6h1.8c0 0.4 0.3 0.4 0.3 0v1c0 0.6-0.3 0.4-0.3 0.6 0 0 0.3 0 0.3 0.4-0.3 0.4-0.3 0-0.7 0v-0.4c0 0 0 0.4-0.3 0.4v0.4c-0.4 0-0.4-0.4-0.4-0.4-0.3 0 0-0.4 0-0.4h-0.3v-0.6h0.7c0.3 0 0 0 0.3-0.2 0-0.4-0.3-0.4-0.3-0.4h-0.7c-0.3 0.4-0.3 0.4-1 0.4-0.4 0-0.7 0-0.7-0.4v0.6c0 0 0.3 0.6 0 0.6h-0.3c-0.4 0 0 0.4-0.7 0.4h-0.4c0 0-0.3 0-0.3-0.4h-0.3l-0.4-0.4c0-0.2 0.7 0 0.7 0 0-0.2-0.3-0.2-0.3-0.2v-0.4c-0.4 0-0.4 0.4-0.4 0.4 0-0.4 0-0.4 0.4-0.4 0.6-0.2 0.6 0.6 1 0.4 0 0 0.3-0.4 0-0.4h-0.4v-0.6h-0.3c-1.7-0.5-1 1-2 0.6h-0.7c0 0.7-0.7 1.1-1 1.1l0.3-0.4h-0.2c0 0.5-0.4 0-0.4 0.9-0.3-0.4 0-0.4-0.3-0.4v-0.4c-0.4 0.4-0.4 0.4-0.7 0 0 0.4-0.3 0.4-0.3 0.4 0-0.4 0-0.4-0.4-0.4v0.4c-0.4 0-0.7-0.4-0.7-0.4v0.4c-0.4 0 0 0.4 0 0.4l-0.4-0.4c-0.3-0.4 0-0.4 0-0.6-0.3 0.2-0.3 0.2-0.3 0v-0.4l-0.4 0.4c0-0.4 0.4-0.4 0.4-0.4h0.7c-0.4 0-0.4-0.2-0.4-0.2 0-0.4 0-0.4-0.3-0.4h0.7v0.4c0 0 0 0.2 0.3 0.2h1c0-0.2 1 0 1 0l-0.3-0.6c-0.4 0-0.4-0.4-0.7-0.4-0.3 0-0.3-0.2-0.3-0.2h-0.4q-0.4 0-0.6-0.1 0-0.1 0-0.4-0.1 0-0.1-0.1c-0.3 0.1-0.2-0.3 0.1-0.1q0 0.1 0 0.2c0.1 0.1 0.2 0 0.2-0.1q-0.2 0-0.2-0.1 0 0 0 0 0 0 0 0c0-0.3 0.1-0.7 0.2-0.8h-0.3c-0.4 0-0.4 0-0.4 0.4v-0.6h0.4v-0.4h-0.4c0.4-0.2 0.4-0.2 0.4 0 0.4 0 0.4 0.4 0.7 0.4-0.3-0.4 0-0.4 0-0.4h0.4c0 0.4-0.4 0.4-0.4 0.6 0 0 0 0.5 0.4 0.9 0 0 0.3 0 0.6 0.2zm0-0.6q0 0 0 0.1 0-0.1 0-0.1zm0.9-1.7q0 0 0 0-0.1 0-0.1-0.1zm0.9 0.5h0.3c0 0-0.3 0-0.3-0.2zm-0.9 0.9v0.2c0.3 0.4 0.3 0 0.3 0v-0.2c0-0.4 0-0.4 0.3-0.4h0.3c0-0.4 0-0.4-0.3-0.4h-0.4v0.8z"/>
		<path fill-rule="evenodd" class="s0" d="m61.9 66c-0.7 0-1.4 0-1.4 0.4v-0.4c-0.3 0-0.3 0.4-0.3 0.4v-0.4h-0.4l-0.3 0.4v-0.4c-0.3-0.4-0.3 0-0.3 0h-1c0 0.4 0 0 0 0h-0.3l0.3-0.4c-0.3 0.4-0.3 0-0.3 0 0 0-0.3 0-0.3-0.2 0-0.2 0.1-0.4 0.3-0.4q0.1 0 0.2 0 0 0 0.1 0l-0.3-0.2c0-0.4 0.3 0 0.3 0 0.3 0 0.3 0 0.3 0.2h0.4c0 0.4 0.7 0 1 0h1c0 0-0.3-0.2-0.3-0.6h-0.3c-0.4 0-0.7-0.6-0.7-0.6v0.2c-0.3 0-0.3-0.2-0.3-0.2h-0.3c-0.4 0-0.7 0-0.7-0.6 0 0.2 0.7 0.6 0.7 0-0.4 0-0.4 0 0-0.4v-0.4h-0.4c0 0.4-0.3 0.4-0.3 0v0.4c-0.3 0 0-0.4 0-0.4 0-0.2 0-0.2 0.3-0.2-0.3 0-0.3 0-0.3-0.4v-0.2c0 0 0.3 0 0.3 0.2 0.4 0 0.4 0.4 0.4 0.4v-0.6h0.3v0.2c0.3 0.4 0 0.4 0 0.6 0 0.5 0 0.5 0.3 0.9 0.3 0 0.3 0.6 0.7 0.6h0.3c0 0 0-0.4 0.3-0.6h-0.3c0.3 0 0.3-0.5 0.3-0.9 0 0 0-0.2 0.3-0.2v-0.6c0 0 0 0.2 0.3 0.2 0-0.2 0-0.2 0.4 0v-0.2c0 0 0.4 0 0.7 0.2 0 0 0 0.4 0.4 0.4v0.2c0 0.1 0.1 0.3 0.3 0.3-0.1 0.2-0.3 0.3-0.3 0.6 0.3 0 0.1 0.4-0.2 0.6 1.8-0.4 5.6 0 7 0h1.4c0-0.4 0-0.6-1-0.6q0.1 0 0.1 0c1 0 1.7 0 1.7 0.6 0 0.2-1.7 0.2-2 0.2 0.4 0 0.7 0.4 1.4 0.4 0-0.4 0 0 0 0h0.7c0 0 0 0.4-0.3 0.4 0 0.2 0 0.2 0.3 0.2h-0.3c0.3 0 0.3 0.4 0.3 0.4 0 0.2-0.7 0.2-0.7 0.2 0 0.4 0.4 0.4 0.4 0.4v0.4h-0.4c-0.3 0 0-0.4 0-0.4-0.3 0-0.3 0.4-0.3 0.4h-0.3v-0.4c-0.3 0 0 0 0-0.4-0.3 0.4-0.3 0.4-0.3 0h-0.3l0.3-0.2h0.7c0-0.4-0.3-0.4 0-0.4 0-0.2 0-0.2-0.3-0.2 0 0-0.3-0.4-0.3 0-0.3 0.2-0.3 0.2-1 0.2-0.7 0-0.7 0-1-0.2 0.3 0.2 0 0.2 0.3 0.2v1.1h-0.6c-0.3 0 0 0-0.3 0.4 0 0-0.3 0-0.3-0.4v0.4h-0.7c-0.3 0-0.3-0.4-0.3-0.4 0-0.4 0.3-0.4 0.3-0.4h-0.3c-0.3-0.2 0-0.6 0-0.6h0.3c0.4 0 0.4 0.6 0.7 0.6h0.3v-0.2h-0.3c-0.3-0.5-0.3-0.7 0-1.1l-0.3 0.4c-2.4-0.5-1.3 0.8-3.4 0.6-0.3 0 0 0.2-0.3 0.2h-0.4c0 0-0.3 0.5-1.4 0.3zm1.4-3.6q0 0.2 0 0.3 0 0 0 0h0.4c-0.4-0.4-0.7-0.4-0.7-0.4q0 0 0 0.1zm6.9 0.9c-1.4 0-5.8 0.8-5.8-0.9 0-0.2 1.7-0.2 2.7-0.2 0.7-0.6 2.4 0 3.1-0.4 0 0.4-1 0.4-1.7 0.4 1.4 0.2 2.7-0.7 3.4 0.2-1.3-0.2-2.7 0.9-4.4 0h-0.3c-1 0-2.4-0.2-2.4 0 0 1.1 3.6 0.9 5.4 0.9zm0 0q0 0 0 0 0 0 0 0 0 0 0 0zm-7.6 0.6q0.1 0 0.2 0-0.1 0-0.2 0zm-4.4 1.5c0 0 0.3 0 0 0 0-0.3 0-0.4-0.1-0.4-0.2 0-0.1 0.1 0.1 0.4zm-0.6 0.2v-0.2q0 0 0 0 0 0.1 0 0.2zm5.4-2.8h-0.3c-0.4-0.4-0.4-0.4-0.4 0 0.4 0 0 0 0 0.4 0 0-0.3 0-0.3 0.2 0 0 0 0.4 0.3 0.4h0.4v-0.6h0.3zm-1.1-0.7l0.3 0.2h0.4c0 0-0.3-0.2-0.7-0.2z"/>
		<path fill-rule="evenodd" class="s0" d="m88.8 73h-0.3c0.3 0 0.3 0.4 0.3 0.4 0 0.2-0.3 0-0.3 0.2v0.6h-0.3v-0.6c0 0 0 0.6-0.4 0.6v-0.2h-0.3l0.3-0.4h-0.7c0-0.2 0-0.2 0.4-0.2h0.7v-0.9c-0.3 0-0.3-0.2-1 0 0 0.4-0.3 0.4-1 0.4 0 0-0.7 0-0.7-0.4v0.9c0.3 0 0.3 0.2 0.3 0.2h-0.7c-0.3 0 0 0.4-0.3 0.6 0 0-0.3 0-0.3-0.2h-0.3v0.2h-0.4v-0.2h-0.3l0.3 0.2c-0.3 0-0.3-0.2-0.3-0.2v-0.4c-0.4-0.2 0.3 0 0.3-0.2h-0.6l0.3-0.4c0.7 0 0.7 0.6 1 0.4-0.3-0.5-0.3-0.9-0.3-1.1v0.2c-2.8-0.2-1.4 0.9-3.8 0.9h-0.3c0 0.2-0.3 0.2-0.3 0.2q0 0-0.1 0.1-0.1 0-0.4 0.1l-0.2 0.2c0.2 0.1-0.2 0-0.1-0.2-0.3 0.1-0.6 0.2-0.6 0.4v-0.6c-0.3 0.4-0.3 0.4-0.3 0v0.4c0-0.4-0.4-0.4-0.4-0.4 0 0.4 0 0.6-0.3 0.6 0.3-0.2 0.3-0.6 0.3-0.6l-0.3 0.4c0-0.4 0-0.4-0.4-0.4v0.4c-0.3 0-0.3-0.4-0.3-0.4h-0.3v0.6c0 0-0.4 0-0.4-0.2-0.3-0.4 0-0.4 0-0.6-0.3 0.2-0.3 0.2-0.3 0h-0.4l0.4-0.4h0.3v0.4h0.6l-0.4-0.4v-0.4c0-0.2 0 0 0.4 0v0.4h0.3c0.3 0.4 1 0 1 0h0.7c0 0-0.3-0.4-0.3-0.6h-0.4c-0.7 0-0.7-0.6-1-0.6h-0.3v-0.4c-0.4 0.5-0.7 0-0.7-0.4 0 0.4 0.7 0.4 0.7 0h-0.4v-0.6c0 0 0 0.4-0.3 0 0-0.1 0-0.3 0.1-0.4-0.1-0.1-0.1-0.2-0.1-0.2v-0.4c0 0 0.3 0 0.3 0.4l0.4 0.4v-0.4c-0.4 0 0 0 0 0v-0.4c0 0.4 0.3 0.4 0.3 0.4 0 0-0.3 0.4-0.3 0.6 0 0.4 0 0.4 0.3 0.6 0.3 0 0.7 0.4 1 0.4h0.4v-0.4c0 0 0-0.2 0.3-0.6h-0.3c0.3 0 0.3-0.2 0.3-0.2v-0.9c0.4 0 0.7 0.4 0.7 0.4v-0.4h0.3l0.4 0.4h0.3v0.4c0.3 0 0.3 0.2 0.3 0.2v0.6c0 0-0.3 0.5-0.3 0.9 1.4-0.4 5.9 0 6.9 0 0.7 0 1.7 0 1.7-0.4 0 0-0.4-0.4-1.4-0.4 1.2 0 1.5 0 1.5 0.4 0 0.4-1 0.6-2 0.6 1 0 1 0.4 1.4 0.4 0.3-0.4 0.3 0 0.3 0h0.3v0.2c0 0.4-0.3 0.4-0.2 0.4zm-1.3-2c-1 0-5.8 0.9-5.8-0.6 0-0.6 1.7-0.2 3.1-0.2v-0.4c0.7-0.4 2 0.4 2.7 0-0.1 0.1-0.8 0.4-1.4 0.4 1.3 0.2 2-0.9 3.4 0-1.1-0.4-3.1 0.8-4.5 0.2h-0.4c-1 0-2.4-0.2-2.4 0 0 1 4.1 0.6 5.1 0.6q0.1 0 0.2 0zm0-1.2q0 0 0 0 0 0 0 0zm0 1.2q0 0 0 0 0 0 0 0 0 0 0 0zm-11.3-0.8c-0.1-0.2-0.2-0.2-0.2-0.2 0 0.1 0.1 0.2 0.2 0.2zm2.8 3.6q0.1 0 0.3 0l0.1-0.2c-0.1 0.1-0.2 0.2-0.4 0.2q0 0 0 0zm0.1-4.2v0.6h0.3c-0.3 0-0.3-0.2-0.3-0.6zm0.7 1c0.3 0 0.3 0 0.3-0.4h-0.7c0 0 0 0.5 0.4 0.4zm-0.7 0.7c0 0.4 0 0 0 0v-0.4h0.3v-0.2l-0.3-0.4v0.6l-0.3 0.4z"/>
		<path fill-rule="evenodd" class="s0" d="m82.1 75.4c0 1 2.8 0.6 3.8 0.6 1.4-0.2 1.4 0 1.4 0.4 0 0.4-1.3 0.4-2 0.6 0.7 0 1.1 0.4 1.4 0 0.3 0 0.3 0.4 0.3 0.4h0.1v0.2c0 0-0.3 0.4 0 0.4h-0.3c0.3 0 0.3 0 0.3 0.4h-0.7c0 0.2 0.3 0.2 0 0.2v0.6l-0.3-0.2h-0.3v0.2c-0.3 0-0.3-0.2-0.3-0.2v-0.4h0.3c0 0 0-0.2 0 0-0.3 0-0.3 0-0.3-0.2 0 0 0-0.4 0.3-0.4 0 0 0.3 0.4 0.3 0l0.3-0.4c0 0 0-0.2-0.3-0.2l-0.7 0.2c0 0-0.4 0.4-0.7 0.4-0.7 0-0.7-0.4-1-0.4v0.4c0.3 0.4 0.3 0.4 0.3 0.6h-0.7c-0.3 0 0 0-0.3 0.4 0 0-0.3 0-0.3-0.4v0.4h-0.3c0 0.2 0.3 0.2 0.3 0.2-0.3 0-0.7 0-0.7-0.2 0 0-0.3 0-0.3-0.4 0-0.2 0.3 0 0.3-0.2h-0.6c0 0 0.4-0.4 0.7-0.4 0.4 0 0.4 0.6 0.7 0.4h0.3c0-0.4-0.3-0.4-0.3-0.4-0.3 0-0.3-0.4 0-0.6h-0.7c-1.7 0-0.6 1-2 0.6 0 0 0 0.4-0.3 0.4q0.5 0 0 0c-0.4 0-0.4 0.6-0.7 0.2-0.3 0-0.7 0-1 0.6v-0.6h-0.4c-0.3 0-0.7 0.4-0.7 0.4 0.4-0.4 0-0.4 0-0.4h-0.6l-0.4 0.4v0.2c0 0-0.3-0.2 0-0.6h-0.3c0 0 0.3 0 0.3-0.2-0.3 0.2-0.3 0-0.7 0h-0.3c0 0 0.3-0.4 0.7-0.4 0 0 0-0.4 0.3-0.4-0.3 0-0.3-0.2-0.3-0.2 0 0 0.3 0 0.3 0.2h0.3v0.4c0 0.4 0.6 0 1 0h0.7v-0.6h-0.4l-0.7-0.4c-0.3 0-0.3 0-0.3-0.2-0.3 0.2-0.7 0-0.7-0.4 0 0.4 0.4 0.4 0.4 0v-0.4h-0.4v-0.2c0 0 0-0.4 0.4 0v-0.4h-0.4v-0.2c0-0.4 0.4 0 0.4 0v0.2h0.3v-0.2c0-0.4 0-0.4-0.3-0.4 0.4 0 0.7 0 0.7 0.4v1.2h1.2v-1.1l0.3-0.2v-0.4h1.7v0.6h0.3c0 0.4 0 0.4-0.3 0.6 0.3 0 0 0.5 0 0.9 1.3-0.4 4.1 0 5.1 0 0.3 0 1.7 0 1.7-0.4 0-0.4-0.3-0.4-1-0.4-1.1 0-4.5 0.9-4.5-0.6 0-0.2 1.4-0.2 1.7-0.2l0.3-0.4c0.6-0.4 2 0.4 2.7 0 0 0.4-1.1 0.4-1.4 0.4 0.6 0.2 1.6-0.3 2.8-0.1-1-0.1-2.6 0.8-4.1 0.3zm5.8-0.2q-0.2 0-0.3-0.1 0.2 0 0.3 0.1zm-9.1 0c0.3 0.2 0 0.2 0.3 0.2 0 0 0-0.2-0.3-0.2zm1 0.6l0.3-0.4h-0.7c0 0 0 0.4 0.4 0.4zm-0.7 0.6v-0.4h0.3v-0.2l-0.3-0.4-0.3 0.4h0.3v0.2c-0.3 0-0.3 0-0.3 0.4z"/>
		<path fill-rule="evenodd" class="s0" d="m81.3 80.9q0 0 0 0c0-0.4 0.3-0.6 1-0.6v-0.4c0.6-0.4 2 0.4 2.7 0-0.1 0.1-0.8 0.4-1.4 0.4 1.3 0.2 1.7-0.3 2.9-0.1-1.1-0.1-2.7 0.9-4.3 0.3-0.6 0-0.7 0-0.9 0.4zm5.4-0.6q-0.1 0-0.2-0.1 0.1 0.1 0.2 0.1zm-1.7-0.4q0 0 0 0 0 0 0 0zm-3.6 1.3c0.4 0.1 1.7 0.1 2.5 0.1q0.7 0 1 0c-0.5 0.1-1.3 0.2-1.9 0.2-1 0-1.5 0-1.6-0.3zm4 0.3q0 0-0.1 0-0.1-0.1-0.4-0.2c0.3 0 0.5 0 0.5 0.2zm-0.1 0q0 0.1 0 0.2c0 0.4-0.7 0.6-2.4 0.6h-0.4c0 0.4 0.7 0.4 0.7 0.6v0.4c-0.3 0 0 0.4 0 0.4h-0.3v0.2c-0.4 0.4-0.4 0-0.7 0 0 0.4 0.3 0.6 0 0.6h-0.4v-0.6c0 0-0.3 0.4-0.3 0-0.2 0-0.3 0-0.3 0.1q0.1 0 0.1 0v0.6h-0.4c-0.3 0 0 0.4-0.3 0.4h-0.7q0 0 0-0.1c-0.3 0 0 0 0-0.4h-0.3v0.4c-0.4 0.5-0.4 0-0.4-0.4 0-0.2 0.4 0 0.4-0.2h-0.4c-0.3-0.4 0-0.4 0-0.4h0.4c0.4-0.2 0.4 0.6 0.7 0.4h0.4v-0.4c-0.4 0-0.4 0-0.4-0.2v-0.4h-1c-0.3 0.7-0.3 0.7-0.3 1.1 0 0.2-0.7 0.2-0.7 0.2q0.5-0.3 0 0c0 0-0.3 0-0.3 0.4v-0.4h-0.7v-0.2l-0.3 0.2c0 0 0-0.2-0.3-0.2 0 0.2 0 0.2-0.3 0.2v-0.2h-0.4v0.6l-0.3-0.5v-0.6c-0.4 0.4-0.4 0-0.4 0h-0.3l0.3-0.2h0.4v0.2h0.3l-0.3-0.2v-0.4h0.3v0.4h0.7c0 0.2 0 0.2 0.3 0.2v-0.2h1.3l-0.4-0.4c0 0-0.4 0-0.7-0.4-0.3-0.3-0.3-0.9-0.3-0.9-0.3 0-0.3-0.2-0.3-0.2q-0.2 0-0.3 0 0-0.1-0.1-0.3c0.2 0.1 0.4 0.1 0.4-0.1q-0.2 0-0.3-0.1 0 0-0.1 0c0-0.1 0-0.3 0-0.3q0-0.3 0 0c0 0-0.3 0-0.3-0.2v-0.4h0.3c-0.3 0-0.3 0-0.3-0.2v-0.4h0.3v0.4c0 0 0 0.2 0.4 0.2v-0.2c0.3 0.2 0 0.2 0 0.6 0 0.2 0 0.2 0.3 0.2 0.3 0.5 0.7 0.9 1 1.1v-1.7l0.4-0.2v-0.4h0.9c0.3 0 0.3 0 0.3 0.4v0.2h0.7c0 0.4-0.3 0.4-0.3 0.6 0 0-0.4 0.5-0.4 0.9 1.7-0.4 3.1 0 3.8 0 0.9 0 1.7-0.3 2-0.4zm-9.1-0.2q0 0.1 0 0.2 0 0-0.1 0c-0.1 0.2 0-0.1 0.1-0.2zm-0.1 0.2q0.1-0.1 0.1-0.1-0.1 0-0.1 0.1zm4.1 3.8h-0.3v-0.3c0 0.3 0 0.3 0.3 0.3zm1-1.3v-0.1q0-0.1 0-0.2c0.1 0 0.1 0.1 0.1 0.1 0.2-0.1 0.4-0.1 0.6-0.1h-0.7q0.1-0.1 0.1-0.1c0.3-0.3 0.3-0.3 0.6-0.3l0.4 0.4c0.3 0 0.3 0 0.3-0.4 0 0-0.3-0.4-0.7-0.4 0 0.4-1 0-1 0 0.4 0.4 0.1 1 0.3 1.1zm0-0.3q0 0 0 0zm0 0.6q0-0.2 0.1-0.3-0.1 0-0.1 0zm0-3.2q0.1-0.1 0.1-0.2 0 0.2 0.1 0.3-0.2-0.1-0.2-0.1zm-2.1 0.1v-0.2l-0.7-0.4v1h0.3v-0.4zm-0.6-0.9v0.2h0.3zm2.8 3.4q0 0 0 0 0 0 0 0zm-1.9-2.8c0-0.4-0.3-0.4-0.3-0.4v0.4z"/>
		<path fill-rule="evenodd" class="s0" d="m54.1 69.4c0 1.1 1 1.8 1 2.4 0 1.2-1 1.7-2.4 2.1 0.6-1.7 0.3-2.6-1.4-2.8 0.7 3-2 3.4-2.7 3 0.7-0.2 1.4-1.7 0.7-2.8-0.3 0.9-1.4 1.5-2.4 1.5-1.1 0-1.7-0.6-2.1-1.5 1.1 0.9 2.1 0 2.1-0.6 0-0.6-1-0.6-1-1.7 0-1.9 2.1-1.3 2.1-3.4 0-0.7-0.3-1.1-1-1.1-0.3 0-1 0.4-1 1.7-1.4-1.3 0-3.4-0.7-4.7 0.3 2.1-1.4 2.1-2.1 3-1-0.9 0-2.6-0.7-4.3-0.4 2.4-1.1 1.7-1.4 3-2-1-5.8-0.6-7.5 1.1 3.7 2.8 8.2 4.5 8.2 8.8 0 3.4-5.1 4.9-5.1 7.3 0 2.2 5.5 7.3 8.2 7.3 1 0 1.4-1.1 2.4-1.1h2c0.7 0 1.4 0.7 1.4 1.3 1.4 0 2.8 2.2 1.4 3.9-0.7-0.6-1.4-2.4-3.1-1.5 0.7 1.5 0 3.3-1.7 3.9 0.7-1.3 0.7-2.4-0.3-2.4-1.3 0-0.3 0.6-2.7 0.6-2 0-1.7 0-2.4-1.1-1.1-1.3-1.8-1.7-2.1-1.7-0.7 0.4-0.7 1.7 0 2.1-4.4 0-2.7-4.9-5.1-5.8 0.3 1.3 0.3 2.4 0 3-1.4-1.3-2.8-3-3.1-4.1 0-1.1 0-2.4-1-2.8-0.3-0.5-0.7-0.5-0.7-1.1 0-0.7 0.3-0.7 1-1.1 1-0.2 2.4-1.3 2.4-3.4 0-1.9-0.3-4.3-3.4-6.4 0 4.1 0 7.3-1.7 10.3-2 3.9-5.8 6.2-8.2 7.3-2 0.9-5.1 1.7-5.1 4.3 0 5.6 2.4 8.6 4.8 8.6 1.3 0 1.3-1.7 3.4-1.7 0.7 0 1.7 0.5 2.1 1.1 1.3-0.2 2.7 0.4 2.7 1.7 0 1-0.7 1.7-1.4 2.1 0.4-1.7-1.3-2.1-1.7-1.7-0.7 0.2 0 1.1 0 1.7 0 1.1-0.3 1.8-1.7 2.4 0.3-0.7 0.3-1.3-0.7-1.3-1 0-1.3 1.7-2.7 1.7-2.1 0-2.4-1.1-4.5-0.9-1.1 0.4-1.1 1.1-0.7 1.5-2.8 0-2.1-2.8-1.4-3.4 0.7-0.4 0.7-1.1 0-1.7-0.7-0.4-2 0-2.4 1.7-2-4.1 0.7-4.1 0-8.6-0.7 1.9-1.7 3.4-2.7 3.6 0.7-0.7-0.7-2.6-0.7-4.1 0-3.4 2.4-4.5 2.4-5.8 0-0.7-0.7-1.3 0-2.4 0.3 0 1.3 0.6 2 0.6 2.7 0 4.8-3.4 5.1-7.5 0.3-4.5 2.4-7.5 4.1-11.4 0.3-0.4 0.3-1.1 0.3-1.7-1.7 2.7-3.5 6.2-6.2 8.1 0.4 3.3-5.5 6.7-8.9 3.9 1.1 0.5 3.1-0.4 3.8-2.1h-1c-2 0.8-5.4-0.7-5.1-2.6 0.7 0.8 1.4 0.8 2.4 0.6-0.3-1.1-1-2.2-1-3.9 0-8.5 13.4-14.3 13.4-21.6 0-1.9-1.3-3.4-2.7-3.4-0.7 0-1.7 0.5-2.7 1.1 0.7 0.4 1 1.5 1 2.1 0 8.1-12.6 7-14 12.6-0.3-6.8 7.6-5.5 8.6-10.9-1.7 2.3-4.8 4-6.5 3.4 4.1 0 3.1-8.6 7.9-8.6h1.4c1.3-0.6 3-1.5 4.4-1.5 1.7 0 4.8 1.5 4.8 5.1 0 8.3-13.7 13.7-13.7 21.6 0 2.8 1.8 4.1 3.8 4.1 4.8 0 7.9-8.5 13-15.4 2.8-4 4.9-12.6 6.9-17.3-2 1.9-2.4 5.8-5.1 6.2 1.4-1.5 0.4-6 1.4-8.6 0.3-1.5 0.6-2.5 0.3-3.6-1.7 1.7-1 8.8-4.1 9.4 1-1.5 0-3.5 0-5.6 0-3.8 1.7-4.5 2.1-7.9-1.7 0.7-1.4 5.8-4.8 5.6 2.7-2.3 0-5.1 2.7-7.9-1.7-0.7-2.7-2.2-2.7-3.9 1-0.7 2.4-0.9 3.4-0.9-0.4-0.9 0.3-1.7 1-2.6 0.4 0.5 0.7 1.1 1.4 0.9 0.3-0.4 2.7-1.7 4.8-2.8 2.4-0.6 5.1-1.7 5.8-1.7 0.6 0 0.3-0.6 0.3-1.5 1 0 2.1 0 2.4 1.1 1-0.7 2-1.1 3.4-1.1 0.3 1.5 0.7 2.8 0 4.9 1.8 0 2.8 1.7 4.5 1.3-1.4 1.7-3.1 1-4.8 0.6 4.8 1.5 5.5 6 8.2 6.6-2.8 1.9-4.9-1.7-6.9-1.7 6.1 3 6.1 6.9 7.5 6.9-1.7 1.7-3.1-0.7-5.5-1.1 4.8 3 5.1 5.5 4.8 7.9 0.7 1.1 1.4 2.4 1.4 4.1 1.1-0.7 2.1-1.3 3.1-1.3-0.4 0.2-0.7 0.7-1.4 1.3-2.4 2.7-4.4 5.7-5.8 9.6-1-1.1-2.4-2.4-3.1-3-1-1.1-1.7-1.1-2-1.1 1.7 1.7 6.8 7.1 8.2 9.2 1.7 1.7 1.7 3 1.7 4.5 0.4 1.1 1.8 1.9 1.1 3.9zm-14.9-35.5c-0.3-0.8-0.7-1.7-1-1.7-1.1 0-1.7-0.3-2.1-0.9-0.3-1 1-1.7 1.7-2.1-1.1-0.4-1.4-1.1-0.7-1.3 0.3-0.4 1.7 0.2 1.7 0 0.3-0.5-0.7-0.9-0.7-1.1-0.7-0.4-1-0.4-1.7 0l-4.5 1.7c-0.6 0.2-1 0.2-1 1.1 0 0.2 0 0.9 0.4 1.3 0.3 0 0.3-1.3 1-1.3 1 0 1 0.6 0.3 1.7 1-0.9 2.4-1.1 2.7 0 0.3 0.8 0.3 1.3-0.7 1.9-0.4 0.6 0 1 0.3 2.1 0.4 1.1 1.4 2.3 3.1 1.7 1.7-0.6 1.3-2.3 1.2-3.1zm-8.2-9.5c-1.7 0.6-3.7 1.7-5.1 1.7 2.1 0.6 2.1 1.7 3.1 1.7 1.7-0.4 2.1-1.7 2-3.4zm8.6-3.4c-1.3 0.6-3.4 1.3-5.1 1.9 1.1 1.5 2.4 2.1 3.8 1.5 1-0.9 0.3-1.7 1.3-3.4z"/>
		<path fill-rule="evenodd" class="s0" d="m22.9 16.7c0-0.2-0.3-0.6-1-0.6-0.3 0-0.7 0.4-0.7 0.6 0 0.9 0.4 1.1 0.7 1.1 0.6-0.1 1-0.3 1-1.1z"/>
		<path fill-rule="evenodd" class="s0" d="m22.5 14.8c0-0.6-0.7-1.1-1-1.1-0.3 0-0.7 0.4-0.7 1.1 0 0.2 0.3 0.6 0.7 0.6 0.3 0 1-0.4 1-0.6z"/>
		<path fill-rule="evenodd" class="s0" d="m23.2 13.7c0.3 0 0.7-0.6 0.7-1.1 0-0.6-0.3-1.1-0.7-1.1-0.7 0-1 0.4-1 1.1 0 0.4 0.3 1.1 1 1.1z"/>
		<path fill-rule="evenodd" class="s0" d="m25.3 13.3c0.7 0 1-0.2 1-0.6 0-0.6-0.3-1.1-1-1.1-0.3 0-0.7 0.4-0.7 1.1 0 0.3 0.3 0.6 0.7 0.6z"/>
		<path fill-rule="evenodd" class="s0" d="m35.6 11.5c0.3 0.4 0.7 0.4 1 0 0.4-0.2 0.4-0.6 0-0.9-0.3-0.9-0.7-0.9-1 0-0.7 0.3-0.7 0.7 0 0.9z"/>
		<path fill-rule="evenodd" class="s0" d="m35.2 9.8c0.3-0.2 0.3-0.9 0-1.3-0.3-0.4-1-0.4-1.4 0-0.4 0.4-0.4 1.1 0 1.3 0.4 0.5 1.1 0.5 1.4 0z"/>
		<path fill-rule="evenodd" class="s0" d="m32.8 9.6c0.3-0.4 0.3-1.1 0-1.5-0.3-0.2-1-0.2-1 0-0.7 0.4-0.7 1.1 0 1.5 0 0.2 0.7 0.2 1 0z"/>
		<path fill-rule="evenodd" class="s0" d="m30.8 10.9c0.4-0.2 0.4-1.1 0-1.3-0.3-0.4-0.7-0.4-1 0-0.7 0.2-0.7 1.1 0 1.3 0.3 0.4 0.6 0.4 1 0z"/>
		<path fill-rule="evenodd" class="s0" d="m25.3 9.6l0.7 1.7 0.7-1.1h0.3v1.7c0 0.6 0.7 1.3 1.4 1.3 0.3 0 0.7-0.6 0.7-1.3 0-0.4 0-0.6-0.3-0.6-0.3-0.4-1-1.1-1.4-1.5h0.3 1.3l-0.7-1.3-1 1.1-0.3-0.4v-1.7l-1.4 0.6 1 1.5z"/>
		<path fill-rule="evenodd" class="s0" d="m35.6 12.6c0.3 0.4 0.3 0.6 0.3 1.1 0 0-0.3-0.4-1-0.6l0.4 1.9c0.3-0.2 0.3-0.6 0.7-0.6 0 1.1-0.3 1.7-1 2.1-0.7 0-1-0.6-1-1.1 0-0.6 0.3-0.6 1-0.4 0-1.3-1-1.3-1.4-0.6 0.3-1.3 0.3-1.9-0.7-2.8-0.7 1.1-0.7 2.1 0.3 2.8-1-0.2-1.4 0.4-1 1.5 0.3-1.1 1-0.9 1.4 0 0 0.6-0.7 0.9-1.4 1.3-1.4 0.4-1.7-0.4-2.1-1.1 0-0.2 1-0.2 1.7 0.4l-0.7-2.1c-0.3 0.6-0.7 1.1-1.4 1.5 0-0.9 0.3-2.1 0.3-2.1l-2.4 1.1c0 0 1.4 0.6 1.7 1.1-0.7 0.2-1 0.2-1.7 0l1 1.9c0-1.1 0.3-1.3 1-1.3 0 0.2 0.3 1.3-0.7 1.9-0.7 0.4-2 0.4-2-0.2-0.4-0.4 0-1.1 0.7-0.6 0-1.1-1-1.1-1.4-0.4 0-1.1-0.3-2.1-1.7-2.1-0.3 1.5 0 1.7 1.4 2.6-0.7-0.4-1.4 0.2-0.3 1.3 0-0.6 0.7-1.1 1-0.4 0 0.4 0 1.1-0.3 1.5-0.7 0-1.4 0-2.4-0.6 0.3-0.4 0.7-0.4 1 0l-1-1.7c0 0.6 0 0.9-0.3 1.3 0-0.6-0.4-0.6-0.4-1.3l-1 0.6c1 0.6 2.1 1.7 3.4 3.4 1.4-0.6 3.8-2.1 5.1-2.8 1.7-0.6 4.5-1.3 5.8-1.7-0.3-2.4 0-3.4 0.4-4.7z"/>
		<path fill-rule="evenodd" class="s0" d="m144.9 86.7c2.1 0 3.8 1.8 3.8 3.9 0 1.7-1.7 3.6-3.8 3.6-2.1 0-3.8-1.9-3.8-3.6 0-2.2 1.8-3.9 3.8-3.9zm0 6.5c1.7 0 2.7-1.3 2.7-2.6 0-1.7-1-3.2-2.7-3.2-1.7 0-3.1 1.5-3.1 3.2 0 1.3 1.4 2.5 3.1 2.6z"/>
		<path fill-rule="evenodd" class="s0" d="m129.3 93.6c1.7 0 2.7 1.3 2.4 2.8 0 0.6-0.3 1.3-1 1.7q-1.1 0.3-2.1 0c-1.1 0-1.4-0.5-2.1-1.1-0.7-0.4-0.7-1.1-0.7-1.7 0-0.7 0.7-1.1 1-1.3 0.6-0.4 1.7-0.9 2.5-0.4zm1.7 2.3c0-0.6-1.1-1.3-2.1-1.7-0.4 0-1.1 0-1.4 0.4-0.4 0.2-0.4 0.2-0.7 1.1 0 0.6 0.7 1.3 1.7 1.7 1 0.2 2-0.4 2.5-1.5z"/>
		<path fill-rule="evenodd" class="s0" d="m107.9 39.9c0.4 0 1.1 0 1.4 0.6 0.3 0.4 0.3 1.1 0.3 1.3 0 0.8-0.4 1.7-1.4 2.1-0.7 1.1-2.4 0.6-3.4 0-0.7-1-0.4-2.8 1-3.4 0.4-0.7 1.4-1.1 2.1-0.6zm-2.1 3.3c0.3 0.2 1.3 0.2 2-0.4 0.4 0 0.7-0.7 0.7-1.1 0.4-0.2 0.4-0.2-0.3-0.6 0-0.2-0.3-0.2-0.3-0.6-0.3 0-1 0.4-1.7 0.6-0.4 0.4-0.7 0.6-0.7 1.5 0 0.2 0 0.2 0.3 0.6z"/>
		<path fill-rule="evenodd" class="s0" d="m123.6 86.8c0.7 0 1.8 0.5 2.1 1.1 0.4 0.6 0.7 1.3 0.7 1.9 0 1.1-0.7 1.7-1 2.6-0.3 0.2-1 0.6-1.7 0.6-0.4 0-1.1-0.4-1.4-0.6-0.3-0.9-1-1.5-1-2.6 0-0.9 0.7-1.8 1-2.4 0.3-0.3 1-0.7 1.3-0.6zm1.1 4.7c0.4-0.2 0.7-0.8 0.7-1.7 0-0.8-0.7-1.9-1.7-1.9-0.4 0-0.4 0.2-0.7 0.6-0.4 0.4-0.7 0.7-0.7 1.3 0 0.8 0.4 1.5 0.7 1.7 0 0 0.4 0.4 0.7 0.4 0.7 0 0.7 0 1-0.4z"/>
		<path fill-rule="evenodd" class="s0" d="m106.2 56.9c0.7 0.2 1.4 1.1 1.7 1.7v1.7c-0.3 0.7-1 1.1-1.7 1.1-0.3 0.2-1.4 0.2-2.4 0-1.4-0.8-2.1-2.5-1.4-3.4 0.4-0.9 0.7-1.1 1.4-1.5 0.3 0 1.3 0 2.4 0.4zm0 3.7c0 0 0.4-0.2 0.7-0.6v-1.1c0-0.3-0.7-0.9-1-0.9-0.7-0.8-1.4-0.8-2.1-0.4 0 0-0.4 0.4-0.7 0.6-0.4 0.7 0.3 1.8 1 2.4z"/>
		<path fill-rule="evenodd" class="s0" d="m152 62.2c-0.4-3.4-11.4-2.7-11.7-9.6 0-1.3 0.4-2.3 1.4-3.4-0.7-0.2-1.1-0.6-2.1-0.6-1.8 0-4.5 2.4-4.5 5.6 0 8.5 11.3 9.4 11.3 18.8 0 1.9-0.7 3.6-2.4 4.7 1.3 0.4 2.4-0.5 3.4-1.1-1.4 3.5-4.8 3.9-6.2 2.4h-0.3c-0.3 0-0.7 0-1-0.2 0.7 1.3 1.7 3 3.4 2.8-3.1 2.6-7.6-0.9-6.9-4.5-1.1-1.1-1.4-2.8-2.1-3.9-0.4-0.7-1-0.3-0.7 0.6 0 3.2-2.4 6-2.4 7.9 0 2.2 2.4 4.1 3.1 4.1 0.7 0 1.4-0.6 1.7-0.6 0.6 0.4 0.3 1.1 0.3 2.8 0 0.6 0 3.4 0.3 6.2 0-0.6 0.7-1.5 1.4-1.7 0.7-0.6 1.7-1 2.4-0.6 0.7 0 1.1 0.3 1.4 0.9 0.3 0.5 0.3 0.9 0.3 1.1v0.6c-0.4 0.8-0.7 1.5-1.4 2.1-0.7 0.4-1.4 0.6-2.1 0.4-0.7 0-1.4-0.5-2.1-1.1v2c0 2.1-0.4 2.8-1.4 3.4 0-0.3-0.4-0.9-1.4-0.9-0.3 0-1 0.2-1 0.6 0 1.3 1 1.1 1 2.4 0 1.3-3.1 3-4.8 2.8 0-0.6 0.3-3.2 1-4.5-0.7 0.7-1.1 1.3-1.4 2.8-0.7 1.7-1.4 1.7-2.1 1.3 0.7-1 2-4 3.4-5.1 1.7-1.3 2.4-1.7 2.7-4.1 0.3-2.8 0-4 0-6.4 0-2.7-1.4-2.1-2.4-2.1-2.1 0-9.3-5.2-9.3-9.9v-1.7c-3.5 0-5.5 0.9-5.5 4.3 0 0.9 0.3 2.2 1 2.6 0.7 0.6 1 1.3 0 1.7-1.4 0.6-12 5.1-12 5.1-1.4 0.2-1.4 0-2.1-0.9-0.3-0.6-1-0.8-1.7-0.6-0.6 0.6 0.4 1.1 0.4 1.7 0 1.1-0.3 2.8-5.1 2.4l1-1.9c0.7-0.7 0.7-1.1 0.3-1.1-0.3 0-0.3 0.5-1 1.1l-1.4 1.7h-1.7c2-2.2 3.1-3.2 4.1-4.1 1-0.8 2.1-1.5 4.1-1.7 2.8-0.5 11-1.5 11-3.9 0-3.4-3.4-3-3.4-7.3 0-3.7 1.4-7.1 11.3-7.1-0.7-2.3-3.4-4-5.8-4.9-4.8-0.8-6.2-4.3-6.5-7.7-1.4-0.4-2.8-0.4-3.8-0.4-3.1 0-4.8-1-5.5-0.6-0.3 0.2-0.3 0.6 0 1.7 0.3 0.6 1.4 2.3 2.4 3.6 0.3 0 1.3 0 1.7 0.9 0 0.9-0.7 0.9-0.7 1.3-0.3 0.5 0 1.1 0.7 1.1 0.3 0 0.3-0.6 0.3-0.6 0.4-0.8 1.4-0.8 2.4-0.4 0.7 1.1 2 2.4 2.4 3.9-1.4-0.5-2.7-1.1-3.4-1.1-0.7 0-0.4 0.2 0 0.2 0.6 0 1.7 0.9 2 1.1v1.5c-0.4-0.4-2.4-1.7-3.8-2.1-1.7-0.7-2.4-1.1-3.1-2.8-0.7-2-3.1-5.8-3.8-7.1-0.7-1-0.3-1.5 0-2.1 0 0 0.3-0.4 0.3-0.6 0.7-1.5 1-1 1.7-0.6 1.1 0 3.1 0 3.8-0.4 0.4-0.4 0.4-0.4 0.7-0.4-2.1-2-4.5-5.2-4.8-5.4-0.4-0.7-0.7-1.1-1.4-1.1-0.4 0-0.7 0-0.7 0.4-0.4 0.2-0.7 0.2-1.4 0.6 0 0 0-0.4-0.3-0.4-0.3-0.7-0.6-1.1-1-1.3 0.7-0.6 1.7-1.5 2.1-1.7 0.7-0.6 0.7-0.6 1-0.6h1.7c0.3 0 0.7 0 1 0.2 0.7 0.7 2 1.7 2.7 2.8h0.9v-0.4c0.7-0.2 1.1-0.2 1.4-0.2 0.7 0 1 0 1.7 0.6 0.3 0.6 0.3 1 0.3 2.1v0.6c0.7 0.6 1.4 1.3 2.4 1.9 0-2.6 1.3-5.4 3.4-7.5l-0.3-0.2v-0.9c0.4-0.7 1.4-3 1.4-4.1 0.4-0.4 0.4-0.4 0.4-0.6l0.3-0.6 2.7 1.3c0-0.4 0-0.4 0.3-0.4 2.4-2.3 8.9-4.1 8.9-7.7 0-0.9-0.4-2.2-1.4-2.6 0.3 0.4 0.6 1 0.3 2.1 0 0.7-1.4 2.8-3.8 2.8-1.4 0-2.4-1.5-3.1-1.5-0.3 0-0.6 0.5-1 0.9 0.3 1.9-0.7 3-1.4 3 0.4-0.6 0-2.1-0.3-2.1 0 0.4-0.4 0.4-0.4 1.7-0.3 0.9-1 2.6-2.4 2.6 0-0.5 0.6-2.2 0.3-2.6-0.4 0-0.7 0.9-1.4 0.9 0 0-0.3-0.5-0.3-0.9 0-0.6-1 0-1-0.6 0-0.2 0.7-1.1 1.7-1.3 1.1-0.4 2.4-1.1 2.1-1.5-0.4-0.9-3.1 0.4-4.5 1.5-1.7 0.6-0.6-0.6-1-1.5-1-1.3-0.3-1.8 0.7-2.4 1-1 3.1-2.3 5.5-3.6 0-0.9 0.3-1.5 1-1.5 1-0.2 2-0.7 2.7-1.1l-12.7-16.1c-0.3-0.2-0.3-0.7-0.3-1.1 0.3 0 0.7 0 1 0.9l15.1 14.4c0-1 0.3-2.1 0-3.4 2.1 0.6 3.5 2.8 3.8 4.5 4.5 0 5.8 2.6 7.2 1.7 0.4 0.8-0.7 1.3-1.7 1.7 5.1 1.3 3.8 5.2 6.5 5.8-0.4 0.2-1.1 0.6-2.1 0.2 3.4 4.9 0.3 7.9 2.7 10.5-1 0.2-2.4-0.9-3.4-2.6 1 4.3-0.4 6.7 0.3 8.4-1 0-2.1-1.1-2.4-2.4-0.4 0.7-0.7 1.8-0.7 2.4l1 1.1-0.3 0.6v-0.4l-0.3 0.4c-2.1 1.7-2.8 3-3.1 3.4l-0.3 0.2h-0.3c-1.7 1.5-2.7 2.8-2.7 4.5 0 1.7 2.4 4.9 4.8 7.9 0-0.4-0.3-0.6-0.3-0.6v-0.4c0.3-0.7 0.7-1.1 1-1.3 0.4-0.6 0.7-0.6 1.4-0.6 1 0 1.7 0.3 2.4 0.9 0.7 0.8 1 1.5 1 2.1 0 0.6-0.4 1.3-0.7 1.7-0.3 0.4-1 0.6-1.7 0.6-0.7 0-1.4-0.2-1.7-0.6 1.7 2.3 3.4 4.7 4.1 6.2 1.7 3.5 3 5.4 5.1 5.4 2 0 4.1-1.3 4.1-4.1 0-8.6-11.3-9.6-11.3-19.5 0-4.5 3.8-6.4 6.2-6.4 1.3 0 2.4 0.2 3.4 1.3 0.3-0.4 0.7-0.4 1-0.4 5.2 0 2.1 7.3 6.2 7.9-2.1 0.7-4.5-0.2-5.5-3.6 0 6.4 8.2 5.1 8.1 9.3zm-25.2 16.4c-1-0.4-1.7 0-2.4 0.9-0.7 0.9-0.7 2.2 0 2.6 0.7 0.2 1.7 0 2.4-0.9 0.6-0.9 0.6-2 0-2.6zm0.3-27.1h0.3c1-1.2 3.4-3.6 3.4-3.6l-2.1-1.5 0.3 0.4v0.2c0 0 0 0.9-0.3 1.5 0-0.4-0.3-0.6-0.3-1.5v-0.2l-1.4 1.9c0.4 0 1.1 0 1.4 0.4-1 0.6-1.4 0.4-2.4 0-0.7-0.7-1-1.3-1-1.3 0.4-0.9 0.4-0.9 0.7-0.9 0.4 0 0.7 0.9 0.7 1.1v-0.2c0.7-0.2 1-0.2 1-1.1v-0.6c-0.3-0.2-0.7-0.2-1-0.2 1.1-0.9 1.4-1.5 1.4-2.6 0-0.2 0-0.6-0.3-0.6v-0.2c-1.4 0.3-2.1 0.9-2.4 2.4 0-0.4-0.6-0.6-1-0.6-0.4 0-0.7 0-0.7 0.2-0.4 0-0.7 0.5-0.7 1.1h0.3c0.3 0 0.7 0 1 0.4 0.3 0.2 0.3 0.2 0 0.6-0.3 0.2-1 0.2-1.7 0-1-0.4-1-1.1-1-1.7v-0.6c0.4 0.2 0.7 0.7 0.7 1.3v0.4l1.2-2.7c-0.4 0.2-0.7 0.2-1.4 0.2 0.3-0.7 1-0.9 1.7-0.9l-3.1-2.1 0.3 0.6c0.3 0 0.3 0.4 0.3 0.6 0 0.5-0.3 0.9-0.3 1.1-0.4-0.2-0.7-1.1-0.7-1.3l-1.7 2.8h0.7c0.7-0.9 1.1-0.9 1.4-0.9-0.3 0.9-1.4 1.5-2.4 0.9-1-0.8-1.3-1.5-1-1.7l0.4-0.4c0.7 0.4 0.7 0.4 1 0.6 0.7 0 0.7-0.2 0.7-0.6 0.3-0.5 0-0.7 0-1.1-0.3 0-0.7-0.2-1 0 0.4-1.1 0.7-1.8 0.7-2.4 0-0.5 0-0.7-0.3-1.1v-0.4c-1.1 0.4-2.1 1.9-2.1 2.8 0-0.2-0.3-0.6-1-0.6 0 0-0.3 0.4-0.7 0.4v1.3c0.4 0 0.7 0 0.7 0.4 0.3 0 0.3 0 0.3 0.2v0.4c-0.3 0.5-0.7 0.5-1.7-0.4-0.7-0.2-1.4-0.7-1.4-1.3v-0.6c0.3 0.2 0.7 0.7 1 1.1l0.4 0.2 0.7-2.4-0.3 0.4h-1.4c0.7-0.9 1.4-0.9 1.7-1.1l0.4-0.4-2.4-0.6v0.3c0 0-1.1 3.2-1.4 4.9zm3.4 13.7c0.7 0.6 1 0.6 1.7 0.6h0.7v-0.2c0.7-0.5 0.7-0.7 0.7-1.1 0-0.4-0.4-0.7-0.7-1.3-0.3-0.9-1-0.9-1.7-0.9h-0.7c-0.4 0.9-0.7 0.9-0.7 1.5 0 0.2 0.4 0.6 0.7 1.4zm6.6 30.8c0.3 0.4 1.7 0.6 2.4 0 0.7-0.2 1-1.1 1-1.3 0-0.5 0.3-0.7 0-1.1-0.4 0-0.7-0.4-0.7-0.4-0.7-0.2-1.4 0-2.1 0.4-0.3 0.4-0.7 0.7-1 1.3 0 0.4 0 0.8 0.4 1.1zm-33.4-49.8c0 0-0.4-0.2-0.7-0.2-0.4-0.4-0.4 0-0.7 0.2-0.4 0-0.7 0.7-0.7 1.1v0.4c0 0.7 0.7 1.3 1.4 1.3h0.7c0.4-0.4 0.4-0.7 0.4-1.3 0-0.8 0-1-0.4-1.5zm15.5-20.9c-1 0-2.1-0.9-3.1-0.9-1.7 0-1 1.7-1.7 2.6 1-0.9 2.7-1.3 4.8-1.7zm12 46.4c-0.7-0.9-1.7-0.5-2.4 0.6-0.7 1.1-0.7 2 0 2.4 0.7 0.7 1.7 0 2.4-0.6 0.7-0.7 0.7-2.2 0-2.4z"/>
		<path fill-rule="evenodd" class="s0" d="m80.3 106.7c0 1.3-0.3 2.8-1 3.4-0.3-1.1-0.7-1.5-1-1.5-0.7 0-0.3 3.9-2.7 4.3v0.6c0 1.1-0.7 1.7-1.7 1.7-1.1 0-2.1-0.6-2.1-1.7 0-0.4 0-0.4 0.4-0.6-2.4-0.4-2.1-4.3-3.1-4.3-0.3 0-0.3 0.4-1 1.5-0.3-0.6-1-2.1-1-3.4 0-1.1 1-2.4 2.7-2.4h0.7v-5.6c2.4 0.7 4.8 1.1 6.9 1.1v4.5h0.7c1.7 0 1.5 0.4 1.4 1.5-0.3-0.3-0.7-0.6-1.4-0.6-2.1 0-1.7 2.8-2.4 2.8-0.7 0-1-0.2-1-0.6 0-1.1 1.4-1.7 1.4-2.8 0-1.3-1.1-2.4-2.1-3-1 0.6-2.4 1.7-2.4 3 0 1.1 1.4 1.7 1.4 2.8 0 0.4 0 0.6-0.4 0.6-1.3 0-0.7-2.8-2.7-2.8-1.4 0-2.1 1.1-2.1 1.5 0 0.6 0.3 1.3 0.3 1.7 0.7-0.4 1-0.6 1-0.6 1.7 0 1.4 4.1 3.1 4.1 0.7 0 1-0.5 1-1.1 0-0.7-0.3-0.7-0.3-1.3 0-0.5 0.3-0.9 1-0.9 0.4 0 0.7 0.5 0.7 0.9 0 0.7-0.3 0.7-0.3 1.3 0 0.7 0.4 1.1 1.4 1.1 1.7 0 1-4.1 2.7-4.1 0.3 0 0.7 0.2 1 0.6 0.4-0.5 0.4-1.1 0.4-1.7 0-0.2 0.8 0.3 0.5-0.1q0 0.1 0 0.1zm-5.3 6.8c0-0.7-0.7-1.1-1-1.1-0.7 0-1 0.5-1 1.1 0 0.2 0.3 1.1 1 1.1 0.3 0 1-0.9 1-1.1z"/>
		<path fill-rule="evenodd" class="s0" d="m64.7 21.8c-0.7 1.7-1.4 2.6-1 3.4 0 1.1 1 1.7 1.7 2.8 0.3-1.1 1-1.9 1-3-0.3-1-1.4-2.1-1.7-3.2z"/>
		<path fill-rule="evenodd" class="s0" d="m82.9 21.8c0.7 1.7 1.4 2.6 1.4 3.4 0 1.1-1 1.7-1.7 2.8-0.3-1.1-1.4-1.9-1.4-3 0.3-1 1.7-2.1 1.7-3.2z"/>
		<path fill-rule="evenodd" class="s0" d="m54.4 21.6c0.3 0 1-0.6 1-1.5 0-0.6-0.7-1.3-1-1.3-0.7 0-1.4 0.6-1.4 1.3 0 0.9 0.7 1.5 1.4 1.5z"/>
		<path fill-rule="evenodd" class="s0" d="m55.1 22.9c0-0.6-0.7-1.1-1.4-1.1-0.3 0-1 0.4-1 1.1 0 1.1 0.7 1.5 1 1.5 0.7 0 1.4-0.4 1.4-1.5z"/>
		<path fill-rule="evenodd" class="s0" d="m55.8 26.1c0-0.9-0.7-1.1-1.4-1.1-0.7 0-1 0.2-1 1.1 0 0.6 0.3 1.3 1 1.3 0.7 0 1.4-0.7 1.4-1.3z"/>
		<path fill-rule="evenodd" class="s0" d="m60.9 15.4c0.7 0 1.4-0.6 1.4-1.1 0-0.6-0.7-1.3-1.4-1.3-0.4 0-1 0.6-1 1.3 0 0.4 0.7 1.1 1 1.1z"/>
		<path fill-rule="evenodd" class="s0" d="m58.2 16.5c0.4 0 1-0.6 1-1.5 0-0.6-0.7-0.9-1-0.9-0.7 0-1.4 0.2-1.4 0.9 0 0.8 0.7 1.5 1.4 1.5z"/>
		<path fill-rule="evenodd" class="s0" d="m55.8 18.4c0.7 0 1-0.6 1-1.3 0-0.4-0.3-1.1-1-1.1-1 0-1.4 0.6-1.4 1.1 0 0.6 0.4 1.3 1.4 1.3z"/>
		<path fill-rule="evenodd" class="s0" d="m64.4 15.8c0.7 0 1.4-0.9 1.4-1.1 0-1.1-0.7-1.5-1.4-1.5-0.7 0-1 0.4-1 1.5-0.1 0.3 0.3 1.1 1 1.1z"/>
		<path fill-rule="evenodd" class="s0" d="m67.1 16.7c1 0 1.4-0.6 1.4-1.3 0-0.6-0.3-1.1-1.4-1.1-0.3 0-1 0.4-1 1.1 0 0.6 0.7 1.3 1 1.3z"/>
		<path fill-rule="evenodd" class="s0" d="m70.2 17.7c0.7 0 1-0.2 1-1.1 0-0.6-0.4-1.3-1-1.3-0.7 0-1.4 0.6-1.4 1.3 0 0.9 0.7 1.1 1.4 1.1z"/>
		<path fill-rule="evenodd" class="s0" d="m92.1 20.1c0 0.9 0.7 1.5 1.4 1.5 0.3 0 1-0.6 1-1.5 0-0.6-0.7-1.3-1-1.3-0.7 0-1.4 0.7-1.4 1.3z"/>
		<path fill-rule="evenodd" class="s0" d="m93.8 21.8c-0.7 0-1.4 0.4-1.4 1.1 0 1.1 0.7 1.5 1.4 1.5 0.7 0 1.4-0.4 1.4-1.5 0-0.7-0.7-1.1-1.4-1.1z"/>
		<path fill-rule="evenodd" class="s0" d="m93.1 25c-0.7 0-1.4 0.2-1.4 1.1 0 0.6 0.7 1.3 1.4 1.3 0.7 0 1.4-0.6 1.4-1.3 0-0.9-0.7-1.1-1.4-1.1z"/>
		<path fill-rule="evenodd" class="s0" d="m86.6 15.4c0.7 0 1.4-0.6 1.4-1.1 0-0.6-0.7-1.3-1.4-1.3-0.7 0-1.4 0.6-1.4 1.3 0.1 0.4 0.8 1.1 1.4 1.1z"/>
		<path fill-rule="evenodd" class="s0" d="m89.7 16.5c0.7 0 1-0.6 1-1.5 0-0.6-0.3-0.9-1-0.9-0.7 0-1.4 0.2-1.4 0.9 0.1 0.8 0.7 1.5 1.4 1.5z"/>
		<path fill-rule="evenodd" class="s0" d="m92.1 18.4c0.7 0 1.4-0.6 1.4-1.3 0-0.4-0.7-1.1-1.4-1.1-0.7 0-1.4 0.6-1.4 1.1 0.1 0.6 0.7 1.3 1.4 1.3z"/>
		<path fill-rule="evenodd" class="s0" d="m83.2 15.8c1 0 1.4-0.9 1.4-1.1 0-1.1-0.3-1.5-1.4-1.5-0.3 0-1 0.4-1 1.5 0 0.3 0.7 1.1 1 1.1z"/>
		<path fill-rule="evenodd" class="s0" d="m80.5 16.7c0.7 0 1-0.6 1-1.3 0-0.6-0.3-1.1-1-1.1-1 0-1.4 0.4-1.4 1.1 0 0.6 0.3 1.3 1.4 1.3z"/>
		<path fill-rule="evenodd" class="s0" d="m76.4 16.7c0 0.9 0.3 1.1 1.4 1.1 0.4 0 1-0.2 1-1.1 0-0.6-0.7-1.3-1-1.3-1.1 0-1.4 0.6-1.4 1.3z"/>
		<path fill-rule="evenodd" class="s0" d="m71.9 23.5h1.4v-5.4c-0.7 0-1-0.4-1.4-0.4z"/>
		<path fill-rule="evenodd" class="s0" d="m76 17.7c-0.3 0-1 0.4-1.4 0.4v5.4h1.4z"/>
		<path fill-rule="evenodd" class="s0" d="m72.9 12v-3c-1.4 0.2-2.4 1.3-2.7 3z"/>
		<path fill-rule="evenodd" class="s0" d="m74.6 12h3.1c-0.3-1.7-1.7-2.8-3.1-3z"/>
		<path fill-rule="evenodd" class="s0" d="m70.2 13.3c0.4 1.7 1.7 3.2 3.8 3.2 1.7 0 3.4-1.5 3.8-3.2z"/>
		<path fill-rule="evenodd" class="s0" d="m76 8.1c-1-0.6-1.7-1.7-1.7-2.6 1 0.2 2.1 0.9 2.7 1.9v-4.4c-0.7 1.1-1.7 1.7-2.7 1.7 0-0.6 0.7-1.9 1.7-2.6h-4.1c0.7 0.6 1.4 1.9 1.4 2.6-0.7 0-2.1-0.6-2.7-1.7v4.5c0.7-1.1 2-1.7 2.7-1.9 0 0.9-0.7 1.9-1.4 2.6h4.1z"/>
		<path fill-rule="evenodd" class="s0" d="m88 93.6c0 0.4-0.4 0.4-0.4 0.4-0.7 0.6-1.7 1.3-2.4 1.9-2.8 1.8-5.2 2.4-6.9 2.4-2.4 0-5.2-0.2-7.9-1.3-2.8-0.7-5.2-1.3-6.9-2.8-1.4 0.6-2.4 1-3.1 0.6-1.4-0.6-2.1-1.9-2.1-3v-0.6c-1-0.7-1.7-1.5-2.7-2.4-2.4-2.8-4.1-6-5.5-9.4-0.7-1.7-1.4-3.4-1.4-5.1 2.1 1.1 2.8 0 3.8-0.6v0.6c2.4 0 4.1-1.3 4.1-2.6 0.3 1.7 0.7 3 1 4.3 1 2.5 2.4 4.9 4.1 6.6 0.3 0.6 1 1.3 1.7 1.9 0.3-0.2 0.7-0.2 1-0.2 1 0 1.7 0.2 2.4 1.3 0.7 0.7 1 1.5 1 2.4v0.4c4.1 1.7 8.6 3.4 12.7 4.5 2.4 0.7 5.1 1.1 7.5 0.7zm-17.5-0.7c0-1.1-0.7-1.7-1.7-1.7-1 0-1.7 0.6-1.7 1.7 0 0.7 0.7 1.3 1.7 1.3 1 0 1.7-0.6 1.7-1.3zm-3.4-5.5c-0.3-0.2-0.3-1.1-1-1.3-0.3-0.7-1-1.1-1.7-1.1-1.3 0-3.1 1.7-3.4 2.1l-0.4 0.2v-0.2h-1.4c0.4 0.3 0.4 0.7 0.7 0.9v0.5c-1.1 1.3-1.4 2.3-1.4 3.4 0 0.4 0.7 1.7 1.7 2.1 0.7 0.2 1.4 0.2 2.4 0-0.7 0-1.1-0.5-1.4-0.9h-0.3c-0.4-0.3-0.4-0.3-0.7-0.9 0-0.4 0.3-1.1 0.3-1.5l0.4-0.2v-0.4l0.3-0.4 0.3 0.4c0.3 0.4 1 0.4 1.7 0.4l0.4-0.4c0-0.4 0-1.3-1-1.7v-0.4l0.4-0.2c0.3-0.7 0.7-0.7 0.7-1.1 1-0.6 1.7-0.6 2 0l0.4 0.4c0.7 0 0.7 0.3 1 0.3zm-6.5-3.5l-1-1.3c0 0-1.4 1.1-1.7 1.1l-1-1.1c0.3-0.4 1.7-1.5 1.7-1.5l-1-1.3-4.5 3.4 0.7 1.3c0 0 1.7-0.9 1.7-1.3 0.3 0.4 1 1.3 1 1.3l-1.7 1.1 1 1.5zm-7.5-3c0.3 0.2 1.4 0.2 1.7 0 1-0.4 1.7-1.1 1.7-1.5 0.3-0.7 0.3-0.9 0.3-1.3 0-0.4 0-0.7-0.3-1.3 0-0.9-0.7-1.1-1.4-1.5-0.7-0.6-1.7-0.6-2.1 0-1 0-1.4 0.6-1.7 1.5-0.3 0.7-0.3 1.8 0 2.4 0.4 0.7 0.7 1.3 1.8 1.7zm24.6 14c0-0.7-0.7-1.3-1.7-1.3-0.7 0-1.4 0.7-1.4 1.3 0 1.1 0.7 1.5 1.4 1.5 1 0 1.7-0.5 1.7-1.5z"/>
		<path fill-rule="evenodd" class="s0" d="m55.1 78.2v-0.6c-0.3-0.6-1-1.1-1.7-0.6-0.7 0.2-1 0.9-0.7 1.7 0.3 0.2 0.3 0.6 0.7 0.6 0.3 0.2 0.7 0.2 1 0 0.4-0.5 0.7-0.7 0.7-1.1z"/>
		<path fill-rule="evenodd" class="s0" d="m55.8 53.5c-0.4-0.4-1 0-1.4 0.6 0 0-0.3 0.6 0 0.6 0 0.4 0 0.6 0.3 1.1h1c0.3 0 0.7-0.4 0.7-0.6 0-0.4 0.3-0.4 0.3-0.6 0.1-0.4-0.2-0.9-0.9-1.1z"/>
		<path fill-rule="evenodd" class="s0" d="m89.4 50.7l0.3 0.5 0.4-0.9z"/>
		<path fill-rule="evenodd" class="s0" d="m97.3 62.1l-0.7-1.1v0.4h-0.4l0.4 0.3z"/>
		<path fill-rule="evenodd" class="s0" d="m96.6 69.2c0.3 0 0.3 0 0.3-0.2v-0.4h-0.3z"/>
		<path fill-rule="evenodd" class="s0" d="m68.1 42.6h-1c-0.3 0.2-0.7 0.2-0.7 0.6-0.3 0.2-0.3 1.1 0 1.1 0 0.2 0.3 1.3 1.7 0.6 0.3 0 0.7-0.4 0.7-0.6v-0.4-0.4c0-0.7-0.3-0.7-0.7-0.9z"/>
		<path fill-rule="evenodd" class="s0" d="m99.9 68.2c0 3.6-1 7.7-2 11.1-1.4 3.4-3.4 6.6-5.5 9.4-1.4 1.3-2.4 2.3-3.8 3.4-0.4 0.2-2.1 0.6-7.9-1.1-0.7 0-1 0-1.7-0.4 0-0.6 0.3-1.3 0.3-1.9 0.4-0.4 0.7-1.5 1.4-1.7 2.1-1.1 4.1-2.6 5.5-4.5 1.7-1.7 3.1-4 3.8-6.6 1.1-2.4 1.4-4.7 1.4-7.5h-16.8v18.9c1.4 0.4 3.8 0.4 3.8 0.4-0.3 1.1-0.7 1.3-0.7 2.8-2.1-0.8-4.5-1.5-6.2-2.1 0.6-0.7 1.3-1.1 2-1.1v-18.9h-17.5c0.3 0.6 0.3 1.1 0.3 1.7-1-1.9 0-1.7-1-3.4-1-1.1-1.4-1.7-1.4-3 0-0.8-0.3-1.5-0.6-2.3l1.3 0.6c0.7-0.6 1.4-1.1 1.7-1.5v-1.7c-0.3-0.3-0.7-0.7-1-0.9-1-0.5-2 0.6-2.4 0.6 0 0.2-0.7 0.6-0.7 0.2 0 0 0.7-0.7 1.4-1.3l-1.7-0.6c-0.3 0.2-1 1.1-1 1.3v0.4c-0.4-0.6-0.7-1.1-1.4-1.5 0-0.2 0-0.2 0.3-0.6 1.4-3.4 3.1-6.4 5.5-9.2 1.3-1.7 3.4-3 5.1-4.5-1-0.6-2-1.7-2-3.4 0-0.6 0.3-1.7 1-2.1-1-3.4-2.7-7.7-4.8-9.4l3.8-1.5c-1.1 1.5-1.1 2.8-0.7 3.9 0.7-0.7 1.7-1.5 1.7-2.8 0.4 1.3 1.1 3 1.4 4.1-0.6-0.6-1.7-1.1-2.7-0.2 0.4 0.7 2.1 1.9 4.5 1.3 1-0.4 2.4-0.6 2.4-2.1-0.4-0.3-0.7-0.9-1.4-0.9-0.6 0-0.6 0.8-0.3 1.7-1.4-0.9-2.4-3.5-0.7-3.9 1.3-0.4 2.4 1.3 2.7 2.8 0.3-1.7 0.6-3.2 2-3.2 1.7 0 1 3.3 0.7 3.9-0.4-1.1-1.1-1.7-1.4-1.7-0.4 0-1.1 0.4-0.7 1.3 0 1.1 1.3 1.7 2.7 1.7 1.8 0 4.2-0.2 4.5-3.4-0.7 0.4-2.4 0.8-3.1 1.7 0.3-1.7 0.3-3 0-4.3 0.7 0.8 2.4 1.3 3.1 1.7-0.3-1-1.4-2.5-2.4-3.4h6.2c-1 0.8-2 2.3-2.7 3.4 1.4-0.4 2.4-0.8 3.4-1.7-0.3 1.3-0.3 2.6 0 4.3-0.7-0.8-2-1.3-3.4-1.7 0.4 3.2 3.1 3.4 4.5 3.4 1.3 0 2.7-0.6 2.7-1.7 0.3-0.9-0.4-1.3-0.7-1.3-0.3 0-1 0.6-1 1.7-0.7-0.7-1.4-3.9 0.3-3.9 1.3 0 2 1.5 2 3.2 0.7-1.5 1.7-3.2 3.1-2.8 1.4 0.5 0.3 3-0.7 3.9 0.4-0.8 0.4-1.7-0.3-1.7-1 0-1.4 0.7-1.4 0.9 0 1.5 1 1.7 2.4 2.1 2.4 0.6 3.7-0.7 4.4-1.3-1-0.9-1.7-0.4-3.1 0.2 0.7-1.1 1.4-2.8 1.4-4.1 0.4 1.3 1.1 2.2 2.1 2.8 0.3-1.1 0-2.4-0.7-3.9l3.4 1.5c-1.7 1.7-3.8 6-4.8 9.4 0.7 0.4 1 1.5 1 2.1 0 1.7-1 2.8-2 3.4 2.1 1.5 3.8 2.8 5.5 4.5 1 1.3 2.4 3 3.1 4.7 0 0 0 0.5-0.3 0.9 0 0 0 0.2-0.3 0.6l-0.3-0.6-5.1 2.4 1.7 3.6 1.4-0.9c0 0-0.7-1.5-0.7-1.7l2.1-1.1c0 0.2 0 1.1 0.7 1.3 0.4 0.7 0.7 1.7 1.4 2.8-0.4 0.4-0.7 1.3-1.4 1.7l-2.4 1.1 0.3 1.3 2.4-0.6 0.3 0.4c0.7 0 2.4 0.7 3.1 0.9 0.4 0.8 1 1.5 1.4 1.7 0.3 0.9 0.3 1.5 0.2 2.5zm-46.7-6.8q0 0 0.1 0 0 0 0 0zm0 0q-0.2-0.4-0.3-0.9c0.4 0 0.7-0.2 0.7-0.6 0.7 0 1-0.6 1-0.2v0.2c0 0-0.7 1.1-1.4 1.5zm45.2 11.1l-5.5-1.1-0.7 3.4 1.4 0.4 0.3-2.1h0.7l-0.4 2.1 1.4 0.2 0.3-1.9h0.7l-0.7 1.9 1.7 0.4zm-1.2 5l-5.5-2.4-0.3 1.7 2.4 0.9-3.4 1.1-0.3 1.1 5.1 2.4 0.7-1.7-2.7-1.1 3.4-0.9zm-3.4 6.3v-0.2c-0.3-0.5-0.3-0.9-1-1.1-0.7-0.6-1.4 0-2.1 0-0.4 0.2-0.7 0.6-0.7 0.6v-0.6c0 0 0.7-0.6 1.4-0.6h0.3l-1.4-1.1c-0.7 0.2-1.4 0.7-1.7 1.1-0.3 0.2-0.3 0.9-0.3 1.3 0 0.5 0.4 0.7 0.7 1.1 1 0.6 1.7 0.2 2.4 0 0.4-0.4 0.7-0.4 0.7-0.4 0.3 0 0 0.6-1.7 1.5l1.7 0.6c0.4 0 1.1-0.4 1.4-0.6 0-0.8 0.3-1 0.3-1.6zm-2.3 4l-4.1-4.1-2.4 2.6 0.7 1.1 1.7-1.3 0.4 0.2-1.4 1.5 1 1.1 1.4-1.1h0.3l-1.4 1.3 1 1.5zm0-20.4c0-2.4-0.4-5.1-1.4-7.5-0.7-2.8-2.1-4.7-3.8-6.4-1.4-2.1-3.5-3.4-5.5-4.5-2.1-1.1-4.1-1.7-6.2-1.7v20.1zm-15.4-22.3c0.3-0.2 0.3-0.6 0.3-1.7v-3h-1.7v3.9c-0.4 0.2-0.4 0.2-0.7 0.2-0.4 0-0.7 0-0.7-0.2 0 0-0.3 0-0.3-0.9v-3h-1.7v3.4c0 1.8 1.3 2.4 2.7 2.4 0.6 0 1.3-0.2 2.1-1.1zm-2.5 22.3v-20.1c-2.4 0-4.5 0.6-6.5 1.7-2.1 1.1-3.8 2.4-5.5 4.5-1.7 1.7-3.1 3.6-4.1 6.4-0.7 2.4-1.1 5.1-1.4 7.5zm-15.7-11.4c0.3-0.7 0.3-1.1 0.3-1.3v-0.9c0-0.6-0.7-1.3-1.4-1.7-0.7-0.2-1.4-0.2-2.1-0.2-1 0.2-1.3 1.1-1.7 1.7-0.3 0.6-0.7 1.3 0 1.9 0 0.8 0.3 1.5 1 1.7 0.7 0 1.4 0.4 2.1 0 0.7 0 1.4-0.7 1.8-1.2zm-2.4-6.3l4.1 3.4 1-1.3-4.1-3.2zm1.2-1.9l1.4 0.9 1-0.9 2.4 3 1.4-1.1c0 0-2.4-3-2.7-3l1.4-1.1-1-1.1zm14.5-2.7h-1.1c0.3-0.2 0.3-0.8 0.3-1.7v-0.6c-0.7-1.7-2.4-2.3-3.8-1.7-1 0.4-1.3 0.6-2 1.5v2.4c0.7 1.3 1.7 1.9 3.1 1.7 0.4 0 1.7 0.2 3.1 0l0.4-1.5zm6.8-4.6l-1 5.8 1.4 0.4 1.4-5.6zm-16 1.3c2-1.3 6.2-2.6 12-2.6 5.5 0 9.6 1.3 12 2.6 1.4-0.3 2.1-1.3 2.1-2.4 0-3-9.6-3.4-14.1-3.4-4.8 0-14.1 0.4-14.1 3.4 0 1.1 0.7 2.1 2.1 2.4zm23.5 3.2l-0.3-2.4-1-0.6-3.4 4.7 1.4 0.9 1.4-2.1 0.7 1.3 1.4-0.2-1.4 2.4 1 1.1 3.4-4.5-0.7-1.1zm0.1 5l1 1.3 1.4-0.2 0.7 1.3-0.3 1.1 1 1.3 3.1-5.8-0.7-0.6zm13 17.2l-5.8-0.4v1.7h2v0.4c0 0.7 0.4 1.1 0.7 1.3 0 0.6 0.7 0.6 1 0.6 0.7 0 1 0 1.4-0.6 0.4-0.2 0.7-0.7 0.7-1.3z"/>
		<path fill-rule="evenodd" class="s0" d="m29 108.4h-0.3c0 0.2 1.4 2.4 1.4 2.4h0.4c1.4-0.6 1-1.3 0.7-2.1-0.4-1-1.5-0.8-2.2-0.3z"/>
		<path fill-rule="evenodd" class="s0" d="m106.2 101.1l0.4-0.2c0 0 0-0.4-0.4-0.4 0-0.4-0.3-0.4-0.3-0.4 0 0-0.3 0.4-0.3 0.9h0.3c-0.1 0.1 0.3 0.1 0.3 0.1z"/>
		<path fill-rule="evenodd" class="s0" d="m99 100c1 0.4 1.7 0 2-0.9 0.3-0.9 0-1.5-1-1.7h-0.7c0 0.2-0.7 2.6-0.7 2.6z"/>
		<path fill-rule="evenodd" class="s0" d="m110 106.2c0.3 0.4 1 0.4 1.4 0.4 0.4-0.4 0.7-0.4 1-0.6q0.5-0.6 0-1.5c0-0.2-0.3-0.2-0.7-0.6-0.4-0.4-0.7-0.4-1.4-0.4-0.3 0-0.3 0.4-0.7 0.9-0.3 0.2-0.3 0.9 0 1.3 0 0.3 0 0.5 0.4 0.5z"/>
		<path fill-rule="evenodd" class="s0" d="m82.2 119.3c-0.7-0.4-0.7-0.4-1.4-0.4-0.4 0-0.7 0-1.4 0.4 0 0.4-0.3 0.6-0.3 1.3 0 0.4 0.3 0.4 0.3 1.1 0.7 0 1 0.4 1.4 0.4 0.3 0 0.7-0.4 1.4-0.6 0-0.4 0.4-0.9 0.4-1.1-0.1-0.5-0.4-0.7-0.4-1.1z"/>
		<path fill-rule="evenodd" class="s0" d="m95.2 102.2h-0.7c2 2.8 5.1 3 5.1 5.8 0 2.2-1.7 3.2-2.7 5.6-0.7 1.7-1.1 2.3-1.4 4.7-0.3 2.2-1.7 6.9-21.6 6.9-19.9 0-21.2-4.8-21.6-6.9-0.7-2.3-1.1-3-1.4-4.7-1.3-2.4-2.7-3.5-2.7-5.6 0-2.4 2.8-3 4.8-5.8h-0.2c-8.9 0-18.5 12.6-26.7 12.6-3.5 0-6.2-4.1-10-6.2 9.9 3.3 24-14.3 33.6-14.3 2.7 0 5.8 1.5 7.2 4.9 1.8 4.1 3.8 5.4 3.8 7.1 0 1.8-1.7 2.4-3.8 3.9-1.7 0.7-3.1 1.3-3.1 2.8 4.4 1.9 11.6 3.4 20.2 3.4 8.6 0 15.8-1.5 19.9-3.4 0.4-1.5-1.3-2.2-2.7-2.8-2.4-1.5-3.8-2.2-3.8-3.9 0-1.7 2-3 3.4-7.1 1.7-3.4 4.8-4.9 7.2-4.9 10 0 24 17.5 34.3 14.3-4.5 2.1-7.2 6.2-10.3 6.2-8.6 0-17.9-12.7-26.8-12.6zm-4 13l-1.7 0.2v3.4l-2.7-2.6-1.4 0.2-0.4 6.6 1.7-0.4v-3.4c0.6 0.7 2.7 2.8 2.7 2.8l1.4-0.4zm-7 5.2c0-1.1 0-1.8-1-2.4-0.4-0.9-1.4-1.1-2.4-1.1-1 0-1.7 0.7-2.4 1.3-0.7 0.5-1 1.5-1 2.4 0 0.8 0.3 1.7 1 2.1 0.7 0.7 1.4 1.1 2.4 1.1 1 0 2.1-0.7 2.4-1.1 1-0.6 1-1.7 1-2.3zm-7.2-2.8h-1.7c0 0-1.3 1.7-1.7 2.1-0.3-0.4-1.7-2.1-1.7-2.1l-1.7-0.4v6.6h1.7v-3.4c0.7 0.6 1.4 1.9 1.4 1.9 0 0 1.3-1.3 1.7-1.9v3.4h2zm-10.1 1.3v-1.9c-1.7 0-3.8-0.4-5.5-0.6v1.9h2v4.9l1.7 0.2v-4.7c0.3 0 1 0 1.7 0.2zm-5.9 3.7v-1.7c-0.7 0-1.7-0.4-2.4-0.6v-0.6c0.3 0.2 2 0.6 2 0.6v-1.7l-2-0.4v-0.6c0.6 0 1.7 0.4 2 0.4v-1.7c-1-0.5-3.1-0.9-4.1-1.1l0.3 6.4c1 0.5 2.8 0.7 4.2 1zm-1.2-16.7c0-2.1-3.1-3.2-5.5-3.4-1.3 1.7-5.1 3.4-5.1 5.8 0 1.3 1.4 2.8 3.8 4.1-0.6-3 6.9-4 6.8-6.5zm-11.6-6.5l-1.7-3.4-1.7 0.6 1.7 3.4c0 0.9 0 1.1-0.3 1.5-1 0.3-1 0-1.7-0.6l-1.4-3.2-1.7 0.6 1.7 3.2c0.3 1.7 1.7 2.3 3.4 1.7 2.1-1.1 2.1-2.3 1.7-3.8zm-5.3 5.1l-1-1.3-2.1 1.3c0 0 0-0.2-0.3-0.2l2-1.5-1-1.3-1.7 1.3c0 0-0.3-0.2-0.3-0.6l2.1-1.1-1-1.7-3.4 2.4 3.1 5.1zm-5.6 3.8l-3.1-5.1-1.4 1.1 3.1 5.1zm-4.5-0.3c-0.3-0.7-0.6-1.1-1-1.3-0.7-0.4-1-0.4-1.7-0.4-0.7 0-1 0.4-1.7 0.4l-2.1 1.3 3.1 5.1 1.7-1.1c2.4-1.3 2.4-2.6 1.7-4zm63.3-6.9l2.1 0.6c1.8 0.5 3.5 0.5 4.5-1.9 1.1-2.2-0.3-3.5-2-3.9l-2.4-0.6zm9-3.6l-3.1 5.6 1.4 0.6c0 0 1-1.7 1.4-1.7v1.1l0.3 1.7c0 0 1.7 1.1 1.7 1.3v-3c0 0 0-0.4-0.3-0.6h0.7c0.4-0.5 0.7-0.5 0.7-1.1 0.3-0.4 0.3-1.1 0.3-1.7-0.3-0.4-0.6-0.6-1-0.6-0.3-0.4-1.7-1-2.1-1.6zm2.9 5.9c-0.3 0.9-0.3 1.7-0.3 2.6 0.3 0.6 0.7 1.3 1.7 1.9 0.7 0.4 1.7 0.4 2.4 0.4 1-0.4 1.7-0.6 2-1.7 0.3-0.4 0.3-0.6 0.3-1.5v-0.9c0-0.8-0.7-1.5-1.4-1.7-1-0.8-1.7-0.8-2.7-0.4-0.7 0-1.8 0.7-2 1.3zm8.1 1l-3.1 5.6 1.4 1.1 3.1-5.1zm2.2 1.8l-0.7 1.5c0.3 0.2 1 0.6 1.7 0.6-0.7 1.1-2.8 4.1-2.8 4.1l1.7 0.6c0.3-0.6 2.1-2.7 2.4-3.6 0.7 0.3 1.4 0.7 1.7 0.9l1-1.7c-1-0.2-3.7-1.7-5-2.4zm-25.3-3.5c-2.4 0.2-5.1 1.3-5.1 3.4 0 2.3 7.6 3.4 6.9 6.4 2.4-1.3 3.8-2.8 3.8-4.1 0-2.4-3.7-4.1-5.6-5.7z"/>
		<path fill-rule="evenodd" class="s2" d="m160.7 2.1v123"/>
	</g>
</svg>